<svg width="113" height="113" viewBox="0 0 113 113" fill="none" xmlns="http://www.w3.org/2000/svg">
<path d="M56.4366 15.4593C56.2518 15.4593 56.0658 15.4171 55.8946 15.334L43.1798 9.15582C42.7531 8.94868 42.4814 8.51456 42.4814 8.04074C42.4814 7.56693 42.7531 7.13281 43.1798 6.92567L55.8946 0.746237C56.2357 0.58003 56.6376 0.58003 56.9787 0.746237L69.6935 6.92567C70.1202 7.13281 70.3918 7.56693 70.3918 8.04074C70.3918 8.51456 70.1202 8.94868 69.6935 9.15582L56.9787 15.334C56.8075 15.4184 56.6215 15.4593 56.4366 15.4593ZM46.5597 8.04074L56.4366 12.8409L66.3136 8.04074L56.4366 3.24058L46.5597 8.04074Z" fill="white"/>
<path d="M56.4366 30.6215C56.2518 30.6215 56.0658 30.5794 55.8946 30.4963L43.1798 24.3181C42.7531 24.1109 42.4814 23.6768 42.4814 23.203V8.04093C42.4814 7.61301 42.701 7.2161 43.0632 6.98911C43.4266 6.76089 43.8806 6.73856 44.2638 6.92462L56.4366 12.8411L68.6082 6.92586C68.994 6.7398 69.4479 6.76337 69.8089 6.99035C70.1711 7.21734 70.3918 7.61425 70.3918 8.04217V23.203C70.3918 23.678 70.1202 24.1109 69.6935 24.3181L56.9787 30.4963C56.8075 30.5794 56.6215 30.6215 56.4366 30.6215ZM44.9621 22.4253L56.4366 28.0019L67.9111 22.4253V10.0218L56.9787 15.3342C56.6376 15.5004 56.2357 15.5004 55.8946 15.3342L44.9621 10.023V22.4253Z" fill="white"/>
<path d="M56.4366 30.6213C55.752 30.6213 55.1963 30.0656 55.1963 29.3809V14.2189C55.1963 13.5342 55.752 12.9785 56.4366 12.9785C57.1213 12.9785 57.677 13.5342 57.677 14.2189V29.3797C57.677 30.0656 57.1213 30.6213 56.4366 30.6213Z" fill="white"/>
<path d="M56.4366 97.0903C56.2518 97.0903 56.0658 97.0494 55.8946 96.9651L43.1798 90.7869C42.7531 90.5797 42.4814 90.1456 42.4814 89.6718C42.4814 89.198 42.7531 88.7638 43.1798 88.5567L55.8946 82.3785C56.2357 82.2111 56.6376 82.2111 56.9787 82.3785L69.6935 88.5567C70.1202 88.7638 70.3918 89.198 70.3918 89.6718C70.3918 90.1456 70.1202 90.5797 69.6935 90.7869L56.9787 96.9651C56.8075 97.0494 56.6215 97.0903 56.4366 97.0903ZM46.5597 89.6718L56.4366 94.4707L66.3136 89.6718L56.4366 84.8729L46.5597 89.6718Z" fill="white"/>
<path d="M56.4366 112.252C56.2518 112.252 56.0658 112.212 55.8946 112.127L43.1798 105.949C42.7531 105.742 42.4814 105.308 42.4814 104.834V89.6719C42.4814 89.2439 42.701 88.847 43.0632 88.6201C43.4266 88.3931 43.8806 88.3695 44.2638 88.5556L56.4366 94.4708L68.6082 88.5556C68.994 88.3707 69.4479 88.3918 69.8089 88.6201C70.1711 88.847 70.3918 89.2439 70.3918 89.6719V104.834C70.3918 105.309 70.1202 105.742 69.6935 105.949L56.9787 112.127C56.8075 112.212 56.6215 112.252 56.4366 112.252ZM44.9621 104.057L56.4366 109.633L67.9111 104.057V91.654L56.9787 96.9664C56.6376 97.1338 56.2357 97.1338 55.8946 96.9664L44.9621 91.654V104.057Z" fill="white"/>
<path d="M56.4366 112.253C55.752 112.253 55.1963 111.698 55.1963 111.012V95.8502C55.1963 95.1643 55.752 94.6099 56.4366 94.6099C57.1213 94.6099 57.677 95.1643 57.677 95.8502V111.012C57.677 111.698 57.1213 112.253 56.4366 112.253Z" fill="white"/>
<path d="M17.3395 78.4631C17.1547 78.4631 16.9686 78.4222 16.7974 78.3379L4.0826 72.1584C3.65591 71.9513 3.38428 71.5172 3.38428 71.0434C3.38428 70.5696 3.65591 70.1354 4.0826 69.9283L16.7974 63.7501C17.1385 63.5826 17.5404 63.5826 17.8815 63.7501L30.5964 69.9283C31.023 70.1354 31.2947 70.5696 31.2947 71.0434C31.2947 71.5172 31.023 71.9513 30.5964 72.1584L17.8815 78.3379C17.7103 78.4222 17.5243 78.4631 17.3395 78.4631ZM7.46255 71.0421L17.3395 75.8423L27.2164 71.0421L17.3395 66.2432L7.46255 71.0421Z" fill="white"/>
<path d="M17.3395 93.6225C17.1547 93.6225 16.9686 93.5816 16.7974 93.4973L4.0826 87.3191C3.65591 87.1119 3.38428 86.6778 3.38428 86.204V71.0419C3.38428 70.614 3.60382 70.2171 3.96724 69.9901C4.32943 69.7619 4.78339 69.7383 5.16666 69.9256L17.3395 75.8421L29.5123 69.9256C29.8956 69.7383 30.3495 69.7619 30.7117 69.9901C31.0739 70.2171 31.2947 70.614 31.2947 71.0419V86.204C31.2947 86.679 31.023 87.1119 30.5964 87.3191L17.8815 93.4985C17.7103 93.5816 17.5243 93.6225 17.3395 93.6225ZM5.86498 85.4275L17.3395 91.0029L28.814 85.4275V73.024L17.8815 78.3377C17.5404 78.5051 17.1385 78.5051 16.7974 78.3377L5.86498 73.024V85.4275Z" fill="white"/>
<path d="M17.3395 93.6227C16.6548 93.6227 16.0991 93.0683 16.0991 92.3824V77.2228C16.0991 76.5369 16.6548 75.9824 17.3395 75.9824C18.0241 75.9824 18.5798 76.5369 18.5798 77.2228V92.3824C18.5798 93.0683 18.0241 93.6227 17.3395 93.6227Z" fill="white"/>
<path d="M95.5338 78.4631C95.349 78.4631 95.163 78.4222 94.9906 78.3379L82.2757 72.1584C81.849 71.9513 81.5774 71.5172 81.5774 71.0434C81.5774 70.5696 81.849 70.1354 82.2757 69.9283L94.9906 63.7501C95.3341 63.5826 95.7323 63.5826 96.0759 63.7501L108.789 69.9283C109.216 70.1354 109.488 70.5696 109.488 71.0434C109.488 71.5172 109.216 71.9513 108.789 72.1584L96.0759 78.3379C95.9047 78.4222 95.7199 78.4631 95.5338 78.4631ZM85.6582 71.0421L95.5351 75.8423L105.412 71.0421L95.5351 66.2432L85.6582 71.0421Z" fill="white"/>
<path d="M95.5338 93.6225C95.349 93.6225 95.163 93.5816 94.9906 93.4973L82.2757 87.3191C81.849 87.1119 81.5774 86.6778 81.5774 86.204V71.0419C81.5774 70.614 81.7982 70.2171 82.1604 69.9901C82.5225 69.7619 82.9765 69.7383 83.361 69.9256L95.5326 75.8421L107.704 69.9256C108.09 69.7396 108.544 69.7631 108.905 69.9901C109.267 70.2171 109.488 70.614 109.488 71.0419V86.204C109.488 86.679 109.216 87.1119 108.789 87.3191L96.0759 93.4973C95.9047 93.5816 95.7199 93.6225 95.5338 93.6225ZM84.0606 85.4275L95.5351 91.0029L107.008 85.4275V73.024L96.0771 78.3377C95.7335 78.5051 95.3354 78.5051 94.9918 78.3377L84.0606 73.024V85.4275Z" fill="white"/>
<path d="M95.5338 93.6227C94.8479 93.6227 94.2935 93.0683 94.2935 92.3824V77.2228C94.2935 76.5369 94.8479 75.9824 95.5338 75.9824C96.2197 75.9824 96.7742 76.5369 96.7742 77.2228V92.3824C96.7742 93.0683 96.2197 93.6227 95.5338 93.6227Z" fill="white"/>
<path d="M17.3395 34.0892C17.1547 34.0892 16.9686 34.047 16.7974 33.9639L4.0826 27.7845C3.65591 27.5773 3.38428 27.1432 3.38428 26.6694C3.38428 26.1956 3.65591 25.7614 4.0826 25.5543L16.7974 19.3761C17.1385 19.2099 17.5404 19.2099 17.8815 19.3761L30.5964 25.5543C31.023 25.7614 31.2947 26.1956 31.2947 26.6694C31.2947 27.1432 31.023 27.5773 30.5964 27.7845L17.8815 33.9639C17.7103 34.047 17.5243 34.0892 17.3395 34.0892ZM7.46255 26.6694L17.3395 31.4695L27.2164 26.6694L17.3395 21.8692L7.46255 26.6694Z" fill="white"/>
<path d="M17.3395 49.25C17.1547 49.25 16.9686 49.2079 16.7974 49.1248L4.0826 42.9466C3.65591 42.7394 3.38428 42.3053 3.38428 41.8315V26.6694C3.38428 26.2415 3.60382 25.8446 3.96724 25.6176C4.32943 25.3906 4.78339 25.3671 5.16666 25.5531L17.3395 31.4696L29.5123 25.5531C29.8956 25.3658 30.3495 25.3906 30.7117 25.6176C31.0739 25.8446 31.2947 26.2415 31.2947 26.6694V41.8315C31.2947 42.3066 31.023 42.7394 30.5964 42.9466L17.8815 49.1248C17.7103 49.2079 17.5243 49.25 17.3395 49.25ZM5.86498 41.055L17.3395 46.6317L28.814 41.055V28.6515L17.8815 33.9652C17.5404 34.1314 17.1385 34.1314 16.7974 33.9652L5.86498 28.6515V41.055Z" fill="white"/>
<path d="M17.3395 49.2504C16.6548 49.2504 16.0991 48.6947 16.0991 48.0101V32.8492C16.0991 32.1646 16.6548 31.6089 17.3395 31.6089C18.0241 31.6089 18.5798 32.1646 18.5798 32.8492V48.0101C18.5798 48.6947 18.0241 49.2504 17.3395 49.2504Z" fill="white"/>
<path d="M95.5338 34.0892C95.349 34.0892 95.1629 34.047 94.9905 33.9639L82.2769 27.7845C81.8503 27.5773 81.5786 27.1432 81.5786 26.6694C81.5786 26.1956 81.8503 25.7614 82.2769 25.5543L94.9918 19.3761C95.3354 19.2099 95.7335 19.2099 96.0771 19.3761L108.791 25.5543C109.217 25.7614 109.489 26.1956 109.489 26.6694C109.489 27.1432 109.217 27.5773 108.791 27.7845L96.0771 33.9639C95.9047 34.047 95.7199 34.0892 95.5338 34.0892ZM85.6581 26.6694L95.5351 31.4695L105.411 26.6694L95.5351 21.8692L85.6581 26.6694Z" fill="white"/>
<path d="M95.5338 49.25C95.349 49.25 95.163 49.2079 94.9906 49.1248L82.2757 42.9466C81.849 42.7394 81.5774 42.3053 81.5774 41.8315V26.6694C81.5774 26.2415 81.7982 25.8446 82.1604 25.6176C82.5225 25.3906 82.9765 25.3671 83.361 25.5531L95.5326 31.4696L107.704 25.5531C108.09 25.3683 108.544 25.3919 108.905 25.6176C109.267 25.8446 109.488 26.2415 109.488 26.6694V41.8315C109.488 42.3065 109.216 42.7394 108.789 42.9466L96.0759 49.1248C95.9047 49.2079 95.7199 49.25 95.5338 49.25ZM84.0606 41.055L95.5351 46.6316L107.008 41.055V28.6515L96.0771 33.9639C95.7335 34.1301 95.3354 34.1301 94.9918 33.9639L84.0606 28.6503V41.055Z" fill="white"/>
<path d="M95.5338 49.2504C94.8479 49.2504 94.2935 48.6947 94.2935 48.0101V32.8492C94.2935 32.1646 94.8479 31.6089 95.5338 31.6089C96.2197 31.6089 96.7742 32.1646 96.7742 32.8492V48.0101C96.7742 48.6947 96.2197 49.2504 95.5338 49.2504Z" fill="white"/>
<path d="M43.7206 92.752C43.5234 92.752 43.3225 92.7049 43.1364 92.6056L29.469 85.2851C28.8649 84.9613 28.638 84.2097 28.9617 83.6056C29.2842 83.0028 30.0371 82.7758 30.6411 83.0983L44.3086 90.4189C44.9126 90.7426 45.1396 91.4943 44.8159 92.0983C44.5914 92.5151 44.1634 92.752 43.7206 92.752Z" fill="white"/>
<path d="M17.3395 66.1041C16.6548 66.1041 16.0991 65.5497 16.0991 64.8638V48.0099C16.0991 47.3252 16.6548 46.7695 17.3395 46.7695C18.0241 46.7695 18.5798 47.3252 18.5798 48.0099V64.8638C18.5798 65.5497 18.0241 66.1041 17.3395 66.1041Z" fill="white"/>
<path d="M30.0557 29.9229C29.6129 29.9229 29.1849 29.686 28.9617 29.268C28.638 28.664 28.8649 27.9123 29.469 27.5886L43.1364 20.2668C43.7405 19.9443 44.4921 20.1713 44.8159 20.7741C45.1396 21.3782 44.9126 22.1298 44.3086 22.4535L30.6411 29.7753C30.4538 29.8758 30.2529 29.9229 30.0557 29.9229Z" fill="white"/>
<path d="M82.8188 29.9231C82.6216 29.9231 82.4207 29.8759 82.2334 29.7755L68.5647 22.4537C67.9619 22.1299 67.7337 21.3783 68.0574 20.7742C68.3811 20.1714 69.134 19.9419 69.7368 20.2669L83.4055 27.5887C84.0083 27.9124 84.2365 28.6641 83.9128 29.2682C83.6895 29.6861 83.2604 29.9231 82.8188 29.9231Z" fill="white"/>
<path d="M95.5338 66.1041C94.8479 66.1041 94.2935 65.5497 94.2935 64.8638V48.0099C94.2935 47.3252 94.8479 46.7695 95.5338 46.7695C96.2197 46.7695 96.7742 47.3252 96.7742 48.0099V64.8638C96.7742 65.5497 96.2197 66.1041 95.5338 66.1041Z" fill="white"/>
<path d="M69.1526 92.752C68.7098 92.752 68.2819 92.5151 68.0573 92.0971C67.7336 91.4943 67.9618 90.7414 68.5659 90.4176L82.2346 83.0971C82.8361 82.7746 83.5903 83.0028 83.914 83.6056C84.2377 84.2084 84.0095 84.9613 83.4055 85.2851L69.7368 92.6056C69.5507 92.7048 69.3498 92.752 69.1526 92.752Z" fill="white"/>
<path d="M56.4366 56.2757C56.2518 56.2757 56.0658 56.2335 55.8946 56.1504L43.1798 49.971C42.7531 49.7638 42.4814 49.3297 42.4814 48.8559C42.4814 48.3821 42.7531 47.948 43.1798 47.7408L55.8946 41.5626C56.2357 41.3964 56.6376 41.3964 56.9787 41.5626L69.6935 47.7408C70.1202 47.948 70.3918 48.3821 70.3918 48.8559C70.3918 49.3297 70.1202 49.7638 69.6935 49.971L56.9787 56.1517C56.8075 56.2335 56.6215 56.2757 56.4366 56.2757ZM46.5597 48.8559L56.4366 53.6561L66.3136 48.8559L56.4366 44.057L46.5597 48.8559Z" fill="white"/>
<path d="M56.4366 71.4378C56.2518 71.4378 56.0658 71.3969 55.8946 71.3125L43.1798 65.1331C42.7531 64.926 42.4814 64.4918 42.4814 64.018V48.856C42.4814 48.4281 42.701 48.0311 43.0644 47.8042C43.4278 47.5772 43.8806 47.5524 44.2638 47.7397L56.4366 53.6561L68.6082 47.7397C68.994 47.5536 69.4479 47.5772 69.8089 47.8042C70.1711 48.0311 70.3918 48.4281 70.3918 48.856V64.0168C70.3918 64.4918 70.1202 64.9247 69.6935 65.1319L56.9787 71.3113C56.8075 71.3969 56.6215 71.4378 56.4366 71.4378ZM44.9621 63.2403L56.4366 68.8169L67.9111 63.2403V50.8368L56.9787 56.1505C56.6376 56.3167 56.2357 56.3167 55.8946 56.1505L44.9621 50.8368V63.2403Z" fill="white"/>
<path d="M56.4366 71.4377C55.752 71.4377 55.1963 70.8833 55.1963 70.1973V55.0353C55.1963 54.3506 55.752 53.7949 56.4366 53.7949C57.1213 53.7949 57.677 54.3506 57.677 55.0353V70.1973C57.677 70.882 57.1213 71.4377 56.4366 71.4377Z" fill="white"/>
<path d="M30.1189 72.2821C29.6699 72.2821 29.2358 72.0377 29.015 71.611C28.7012 71.002 28.9393 70.2541 29.5484 69.939L43.1525 62.9137C43.7615 62.5999 44.5095 62.838 44.8245 63.447C45.1383 64.056 44.9002 64.804 44.2912 65.119L30.687 72.1444C30.5047 72.2374 30.3099 72.2821 30.1189 72.2821Z" fill="white"/>
<path d="M82.7667 72.5516C82.5695 72.5516 82.3686 72.5045 82.1813 72.4053L68.5647 65.1108C67.9619 64.787 67.7337 64.0354 68.0574 63.4313C68.3811 62.8285 69.134 62.6015 69.7368 62.924L83.3534 70.2185C83.9562 70.5423 84.1844 71.2939 83.8607 71.898C83.6374 72.3147 83.2083 72.5516 82.7667 72.5516Z" fill="white"/>
<path d="M69.1526 50.0959C68.7098 50.0959 68.2819 49.859 68.0573 49.441C67.7336 48.8369 67.9618 48.0853 68.5659 47.7615L82.2346 40.441C82.8361 40.116 83.5903 40.3442 83.914 40.9483C84.2377 41.5523 84.0095 42.304 83.4055 42.6277L69.7368 49.9483C69.5507 50.0488 69.3498 50.0959 69.1526 50.0959Z" fill="white"/>
<path d="M43.7206 50.0959C43.5296 50.0959 43.3361 50.0513 43.155 49.9582L29.4876 42.9329C28.8785 42.6203 28.6379 41.8724 28.9517 41.2634C29.2655 40.6544 30.0135 40.415 30.6212 40.7275L44.2887 47.7529C44.8977 48.0655 45.1383 48.8134 44.8245 49.4224C44.605 49.8503 44.1708 50.0959 43.7206 50.0959Z" fill="white"/>
</svg>
