<svg width="113" height="113" viewBox="0 0 113 113" fill="none" xmlns="http://www.w3.org/2000/svg">
<path d="M110.392 95.1942H72.7783C71.7512 95.1942 70.9177 94.3607 70.9177 93.3337C70.9177 92.3067 71.7512 91.4731 72.7783 91.4731H110.392C111.419 91.4731 112.252 92.3067 112.252 93.3337C112.252 94.3607 111.419 95.1942 110.392 95.1942Z" fill="white"/>
<path d="M40.095 95.1942H2.48138C1.45313 95.1942 0.62085 94.3607 0.62085 93.3337C0.62085 92.3067 1.45313 91.4731 2.48138 91.4731H40.095C41.1233 91.4731 41.9556 92.3067 41.9556 93.3337C41.9556 94.3607 41.122 95.1942 40.095 95.1942Z" fill="white"/>
<path d="M95.9878 74.4455H79.5853C78.5583 74.4455 77.7248 73.6119 77.7248 72.5849C77.7248 71.5579 78.5583 70.7244 79.5853 70.7244H95.9878C102.904 70.7244 108.531 65.0957 108.531 58.1795C108.531 51.5622 103.348 46.0687 96.7307 45.6755L94.7697 45.5589L94.993 43.6078C95.117 42.5263 95.1753 41.5588 95.1753 40.6496C95.1753 30.7603 89.399 21.6313 80.4598 17.3905C77.0054 15.752 73.3005 14.9222 69.448 14.9222C60.5608 14.9222 52.4192 19.4383 47.6686 27.0033L46.7446 28.4743L45.214 27.6532C40.0206 24.8661 33.6043 24.587 28.2125 26.8792C21.2938 29.8226 16.5929 36.5812 16.2381 44.0978L16.1674 45.5825L14.7038 45.8417C8.7005 46.9084 4.3419 52.0968 4.3419 58.1795C4.3419 65.0957 9.96938 70.7232 16.8856 70.7232H33.4443C34.4725 70.7232 35.3048 71.5567 35.3048 72.5837C35.3048 73.6107 34.4725 74.4442 33.4443 74.4442H16.8856C7.91784 74.4455 0.62085 67.1485 0.62085 58.1795C0.62085 50.7783 5.59218 44.3992 12.6324 42.4952C13.549 34.1402 18.9706 26.7663 26.7563 23.4546C29.655 22.2217 32.7336 21.5966 35.9076 21.5966C39.1921 21.5966 42.4591 22.2949 45.4496 23.627C50.9816 15.8153 59.8328 11.2012 69.448 11.2012C73.8562 11.2012 78.0969 12.1525 82.0537 14.0279C92.2853 18.8814 98.8964 29.3314 98.8964 40.6496C98.8964 41.147 98.8803 41.658 98.8505 42.1864C106.503 43.5495 112.252 50.24 112.252 58.1795C112.252 67.1485 104.956 74.4455 95.9878 74.4455Z" fill="white"/>
<path d="M84.3099 43.2208C83.2829 43.2208 82.4494 42.3885 82.4494 41.3603C82.4494 36.2724 79.4552 31.6235 74.8225 29.5174C73.8873 29.092 73.4742 27.9893 73.8997 27.0541C74.3251 26.1188 75.4302 25.7083 76.363 26.13C82.3216 28.8389 86.1705 34.8174 86.1705 41.3603C86.1705 42.3873 85.3369 43.2208 84.3099 43.2208Z" fill="white"/>
<path d="M27.7337 46.5811C27.7052 46.5811 27.6754 46.5811 27.6444 46.5798C26.6174 46.5314 25.8248 45.6595 25.8732 44.6337C26.0183 41.5539 27.539 38.7507 30.0433 36.9473C30.8768 36.3457 32.039 36.5355 32.6406 37.369C33.2409 38.2025 33.0524 39.3647 32.2188 39.9663C30.6399 41.1037 29.6823 42.8699 29.5905 44.8098C29.5446 45.8046 28.721 46.5811 27.7337 46.5811Z" fill="white"/>
<path d="M64.396 72.5379H63.3615C62.3345 72.5379 61.501 71.7044 61.501 70.6774C61.501 69.6504 62.3345 68.8169 63.3615 68.8169H64.396C65.423 68.8169 66.2565 69.6504 66.2565 70.6774C66.2565 71.7044 65.423 72.5379 64.396 72.5379Z" fill="white"/>
<path d="M57.728 72.5379H56.6935C55.6653 72.5379 54.833 71.7044 54.833 70.6774C54.833 69.6504 55.6653 68.8169 56.6935 68.8169H57.728C58.755 68.8169 59.5885 69.6504 59.5885 70.6774C59.5885 71.7044 58.755 72.5379 57.728 72.5379Z" fill="white"/>
<path d="M64.396 58.765H63.3615C62.3345 58.765 61.501 57.9315 61.501 56.9045C61.501 55.8775 62.3345 55.0439 63.3615 55.0439H64.396C65.423 55.0439 66.2565 55.8762 66.2565 56.9045C66.2565 57.9327 65.423 58.765 64.396 58.765Z" fill="white"/>
<path d="M57.728 58.765H56.6935C55.6653 58.765 54.833 57.9315 54.833 56.9045C54.833 55.8775 55.6653 55.0439 56.6935 55.0439H57.728C58.755 55.0439 59.5885 55.8762 59.5885 56.9045C59.5885 57.9327 58.755 58.765 57.728 58.765Z" fill="white"/>
<path d="M72.0204 39.0359C72.0204 36.4696 69.9316 34.3809 67.3653 34.3809H45.5066C42.9391 34.3809 40.8516 36.4696 40.8516 39.0359V47.2222C40.8516 48.2753 41.2162 49.2366 41.8079 50.0167C41.2162 50.7969 40.8516 51.7582 40.8516 52.8112V60.9963C40.8516 62.0494 41.2162 63.0107 41.8079 63.7908C41.2162 64.5723 40.8516 65.5335 40.8516 66.5866V74.7717C40.8516 77.338 42.9403 79.4267 45.5066 79.4267H54.5761V85.2117C50.8724 86.0601 48.0977 89.3768 48.0977 93.3348C48.0977 97.9328 51.8386 101.674 56.4366 101.674C61.0346 101.674 64.7767 97.9328 64.7767 93.3348C64.7767 89.3768 62.002 86.0601 58.2971 85.2117V79.4267H67.3666C69.9328 79.4267 72.0216 77.338 72.0216 74.7717V66.5866C72.0216 65.5335 71.6569 64.5723 71.0653 63.7908C71.6569 63.0107 72.0216 62.0494 72.0216 60.9963V52.8112C72.0216 51.7582 71.6569 50.7969 71.0653 50.0167C71.6569 49.2366 72.0216 48.2753 72.0216 47.2222L72.0204 39.0359ZM61.0556 93.3335C61.0556 95.88 58.983 97.9514 56.4366 97.9514C53.8901 97.9514 51.8187 95.88 51.8187 93.3335C51.8187 90.7871 53.8901 88.7145 56.4366 88.7145C58.983 88.7145 61.0556 90.7871 61.0556 93.3335ZM44.5726 39.0359C44.5726 38.5212 44.9919 38.1019 45.5066 38.1019H67.3653C67.8801 38.1019 68.2993 38.5212 68.2993 39.0359V47.2222C68.2993 47.737 67.8801 48.1562 67.3653 48.1562H45.5066C44.9906 48.1562 44.5726 47.737 44.5726 47.2222V39.0359ZM68.2993 52.8112V60.9963C68.2993 61.5111 67.8801 61.9303 67.3653 61.9303H45.5066C44.9906 61.9303 44.5726 61.5111 44.5726 60.9963V52.8112C44.5726 52.2965 44.9919 51.8773 45.5066 51.8773H67.3653C67.8813 51.8773 68.2993 52.2965 68.2993 52.8112ZM68.2993 74.7704C68.2993 75.2852 67.8801 75.7044 67.3653 75.7044H45.5066C44.9906 75.7044 44.5726 75.2852 44.5726 74.7704V66.5853C44.5726 66.0694 44.9919 65.6501 45.5066 65.6501H67.3653C67.8801 65.6501 68.2993 66.0694 68.2993 66.5853V74.7704Z" fill="white"/>
<path d="M64.396 44.9896H63.3615C62.3345 44.9896 61.501 44.1573 61.501 43.1291C61.501 42.1008 62.3345 41.2686 63.3615 41.2686H64.396C65.423 41.2686 66.2565 42.1008 66.2565 43.1291C66.2565 44.1573 65.423 44.9896 64.396 44.9896Z" fill="white"/>
<path d="M57.728 44.9896H56.6935C55.6653 44.9896 54.833 44.1573 54.833 43.1291C54.833 42.1008 55.6653 41.2686 56.6935 41.2686H57.728C58.755 41.2686 59.5885 42.1008 59.5885 43.1291C59.5885 44.1573 58.755 44.9896 57.728 44.9896Z" fill="white"/>
</svg>
