<svg width="25" height="29" viewBox="0 0 25 29" fill="none" xmlns="http://www.w3.org/2000/svg">
<path d="M1.01163 23.6046C0.458605 23.6046 0 23.146 0 22.593V7.75581C0 1.80744 1.80744 0 7.75581 0H17.1977C23.146 0 24.9535 1.80744 24.9535 7.75581V21.2442C24.9535 21.46 24.9535 21.6623 24.94 21.8781C24.8995 22.4312 24.4005 22.8628 23.8609 22.8223C23.3079 22.7819 22.8763 22.2963 22.9167 21.7433C22.9302 21.5814 22.9302 21.406 22.9302 21.2442V7.75581C22.9302 2.94046 22.0265 2.02326 17.1977 2.02326H7.75581C2.92698 2.02326 2.02326 2.94046 2.02326 7.75581V22.593C2.02326 23.146 1.56465 23.6046 1.01163 23.6046Z" fill="#292D32"/>
<path d="M19.2209 29.0003H5.73256C2.57628 29.0003 0 26.424 0 23.2677V22.391C0 19.7068 2.18512 17.5352 4.85581 17.5352H23.9419C24.4949 17.5352 24.9535 17.9938 24.9535 18.5468V23.2677C24.9535 26.424 22.3772 29.0003 19.2209 29.0003ZM4.85581 19.5584C3.29116 19.5584 2.02326 20.8263 2.02326 22.391V23.2677C2.02326 25.3179 3.68233 26.977 5.73256 26.977H19.2209C21.2712 26.977 22.9302 25.3179 22.9302 23.2677V19.5584H4.85581Z" fill="#292D32"/>
<path d="M17.8721 8.7674H7.08145C6.52843 8.7674 6.06982 8.30879 6.06982 7.75577C6.06982 7.20275 6.52843 6.74414 7.08145 6.74414H17.8721C18.4252 6.74414 18.8838 7.20275 18.8838 7.75577C18.8838 8.30879 18.4252 8.7674 17.8721 8.7674Z" fill="#292D32"/>
<path d="M13.8256 13.4886H7.08145C6.52843 13.4886 6.06982 13.03 6.06982 12.477C6.06982 11.9239 6.52843 11.4653 7.08145 11.4653H13.8256C14.3787 11.4653 14.8373 11.9239 14.8373 12.477C14.8373 13.03 14.3787 13.4886 13.8256 13.4886Z" fill="#292D32"/>
</svg>
