<svg width="36" height="36" viewBox="0 0 36 36" fill="none" xmlns="http://www.w3.org/2000/svg">
<path d="M18 1C8.61116 1 1 8.61116 1 18C1 27.3888 8.61116 35 18 35C27.3888 35 35 27.3888 35 18C35 8.61116 27.3888 1 18 1Z" stroke="black" stroke-linecap="round" stroke-linejoin="round"/>
<path d="M4.8606 28.7869C4.8606 28.7869 8.64993 23.9492 17.9999 23.9492C27.3499 23.9492 31.1394 28.7869 31.1394 28.7869" stroke="black" stroke-linecap="round" stroke-linejoin="round"/>
<path d="M18.0001 17.9998C20.8169 17.9998 23.1001 15.7165 23.1001 12.8998C23.1001 10.0832 20.8169 7.7998 18.0001 7.7998C15.1834 7.7998 12.9001 10.0832 12.9001 12.8998C12.9001 15.7165 15.1834 17.9998 18.0001 17.9998Z" stroke="black" stroke-linecap="round" stroke-linejoin="round"/>
</svg>
