<svg width="1120" height="86" viewBox="0 0 1120 86" fill="none" xmlns="http://www.w3.org/2000/svg">
<path d="M525.111 80.105C524.421 80.105 523.811 79.985 523.281 79.745C522.761 79.505 522.351 79.17 522.051 78.74C521.751 78.31 521.591 77.83 521.571 77.3H522.681C522.731 77.81 522.956 78.26 523.356 78.65C523.756 79.03 524.341 79.22 525.111 79.22C525.821 79.22 526.381 79.04 526.791 78.68C527.211 78.31 527.421 77.845 527.421 77.285C527.421 76.835 527.306 76.475 527.076 76.205C526.846 75.925 526.561 75.72 526.221 75.59C525.881 75.45 525.411 75.3 524.811 75.14C524.111 74.95 523.556 74.765 523.146 74.585C522.736 74.405 522.386 74.125 522.096 73.745C521.806 73.365 521.661 72.85 521.661 72.2C521.661 71.66 521.801 71.18 522.081 70.76C522.361 70.33 522.756 69.995 523.266 69.755C523.776 69.515 524.361 69.395 525.021 69.395C525.991 69.395 526.771 69.635 527.361 70.115C527.961 70.585 528.306 71.195 528.396 71.945H527.256C527.186 71.515 526.951 71.135 526.551 70.805C526.151 70.465 525.611 70.295 524.931 70.295C524.301 70.295 523.776 70.465 523.356 70.805C522.936 71.135 522.726 71.59 522.726 72.17C522.726 72.61 522.841 72.965 523.071 73.235C523.301 73.505 523.586 73.71 523.926 73.85C524.276 73.99 524.746 74.14 525.336 74.3C526.016 74.49 526.566 74.68 526.986 74.87C527.406 75.05 527.761 75.33 528.051 75.71C528.341 76.09 528.486 76.6 528.486 77.24C528.486 77.73 528.356 78.195 528.096 78.635C527.836 79.075 527.451 79.43 526.941 79.7C526.431 79.97 525.821 80.105 525.111 80.105ZM531.88 72.695V77.78C531.88 78.28 531.975 78.625 532.165 78.815C532.355 79.005 532.69 79.1 533.17 79.1H534.13V80H533.005C532.265 80 531.715 79.83 531.355 79.49C530.995 79.14 530.815 78.57 530.815 77.78V72.695H529.675V71.81H530.815V69.755H531.88V71.81H534.13V72.695H531.88ZM535.382 75.89C535.382 75.05 535.547 74.315 535.877 73.685C536.217 73.045 536.682 72.555 537.272 72.215C537.872 71.865 538.547 71.69 539.297 71.69C540.077 71.69 540.747 71.87 541.307 72.23C541.877 72.59 542.287 73.05 542.537 73.61V71.81H543.587V80H542.537V78.185C542.277 78.745 541.862 79.21 541.292 79.58C540.732 79.94 540.062 80.12 539.282 80.12C538.542 80.12 537.872 79.945 537.272 79.595C536.682 79.245 536.217 78.75 535.877 78.11C535.547 77.47 535.382 76.73 535.382 75.89ZM542.537 75.905C542.537 75.245 542.402 74.665 542.132 74.165C541.862 73.665 541.492 73.28 541.022 73.01C540.562 72.74 540.052 72.605 539.492 72.605C538.912 72.605 538.392 72.735 537.932 72.995C537.472 73.255 537.107 73.635 536.837 74.135C536.577 74.625 536.447 75.21 536.447 75.89C536.447 76.56 536.577 77.15 536.837 77.66C537.107 78.16 537.472 78.545 537.932 78.815C538.392 79.075 538.912 79.205 539.492 79.205C540.052 79.205 540.562 79.07 541.022 78.8C541.492 78.53 541.862 78.145 542.132 77.645C542.402 77.145 542.537 76.565 542.537 75.905ZM547.349 72.695V77.78C547.349 78.28 547.444 78.625 547.634 78.815C547.824 79.005 548.159 79.1 548.639 79.1H549.599V80H548.474C547.734 80 547.184 79.83 546.824 79.49C546.464 79.14 546.284 78.57 546.284 77.78V72.695H545.144V71.81H546.284V69.755H547.349V71.81H549.599V72.695H547.349ZM558.425 71.81V80H557.375V78.56C557.135 79.07 556.765 79.46 556.265 79.73C555.765 80 555.205 80.135 554.585 80.135C553.605 80.135 552.805 79.835 552.185 79.235C551.565 78.625 551.255 77.745 551.255 76.595V71.81H552.29V76.475C552.29 77.365 552.51 78.045 552.95 78.515C553.4 78.985 554.01 79.22 554.78 79.22C555.57 79.22 556.2 78.97 556.67 78.47C557.14 77.97 557.375 77.235 557.375 76.265V71.81H558.425ZM563.643 80.12C562.703 80.12 561.933 79.905 561.333 79.475C560.743 79.035 560.413 78.44 560.343 77.69H561.423C561.473 78.15 561.688 78.525 562.068 78.815C562.458 79.095 562.978 79.235 563.628 79.235C564.198 79.235 564.643 79.1 564.963 78.83C565.293 78.56 565.458 78.225 565.458 77.825C565.458 77.545 565.368 77.315 565.188 77.135C565.008 76.955 564.778 76.815 564.498 76.715C564.228 76.605 563.858 76.49 563.388 76.37C562.778 76.21 562.283 76.05 561.903 75.89C561.523 75.73 561.198 75.495 560.928 75.185C560.668 74.865 560.538 74.44 560.538 73.91C560.538 73.51 560.658 73.14 560.898 72.8C561.138 72.46 561.478 72.19 561.918 71.99C562.358 71.79 562.858 71.69 563.418 71.69C564.298 71.69 565.008 71.915 565.548 72.365C566.088 72.805 566.378 73.415 566.418 74.195H565.368C565.338 73.715 565.148 73.33 564.798 73.04C564.458 72.74 563.988 72.59 563.388 72.59C562.858 72.59 562.428 72.715 562.098 72.965C561.768 73.215 561.603 73.525 561.603 73.895C561.603 74.215 561.698 74.48 561.888 74.69C562.088 74.89 562.333 75.05 562.623 75.17C562.913 75.28 563.303 75.405 563.793 75.545C564.383 75.705 564.853 75.86 565.203 76.01C565.553 76.16 565.853 76.38 566.103 76.67C566.353 76.96 566.483 77.345 566.493 77.825C566.493 78.265 566.373 78.66 566.133 79.01C565.893 79.35 565.558 79.62 565.128 79.82C564.698 80.02 564.203 80.12 563.643 80.12Z" fill="black"/>
<path d="M50.5619 36.34V46H49.5819V38.286L46.1379 46H45.4239L41.9799 38.314V46H40.9999V36.34H42.0359L45.7739 44.712L49.5119 36.34H50.5619ZM52.337 42.164C52.337 41.38 52.491 40.694 52.799 40.106C53.1164 39.5087 53.5504 39.0513 54.101 38.734C54.661 38.4073 55.291 38.244 55.991 38.244C56.719 38.244 57.3444 38.412 57.867 38.748C58.399 39.084 58.7817 39.5133 59.015 40.036V38.356H59.995V46H59.015V44.306C58.7724 44.8287 58.385 45.2627 57.853 45.608C57.3304 45.944 56.705 46.112 55.977 46.112C55.2864 46.112 54.661 45.9487 54.101 45.622C53.5504 45.2953 53.1164 44.8333 52.799 44.236C52.491 43.6387 52.337 42.948 52.337 42.164ZM59.015 42.178C59.015 41.562 58.889 41.0207 58.637 40.554C58.385 40.0873 58.0397 39.728 57.601 39.476C57.1717 39.224 56.6957 39.098 56.173 39.098C55.6317 39.098 55.1464 39.2193 54.717 39.462C54.2877 39.7047 53.947 40.0593 53.695 40.526C53.4524 40.9833 53.331 41.5293 53.331 42.164C53.331 42.7893 53.4524 43.34 53.695 43.816C53.947 44.2827 54.2877 44.642 54.717 44.894C55.1464 45.1367 55.6317 45.258 56.173 45.258C56.6957 45.258 57.1717 45.132 57.601 44.88C58.0397 44.628 58.385 44.2687 58.637 43.802C58.889 43.3353 59.015 42.794 59.015 42.178ZM65.8163 38.216C66.731 38.216 67.4776 38.5007 68.0563 39.07C68.635 39.63 68.9243 40.4467 68.9243 41.52V46H67.9583V41.632C67.9583 40.8013 67.7483 40.1667 67.3283 39.728C66.9176 39.2893 66.353 39.07 65.6343 39.07C64.897 39.07 64.309 39.3033 63.8703 39.77C63.4316 40.2367 63.2123 40.9227 63.2123 41.828V46H62.2323V38.356H63.2123V39.658C63.455 39.1913 63.805 38.8367 64.2623 38.594C64.7196 38.342 65.2376 38.216 65.8163 38.216ZM77.7137 38.356V46H76.7337V44.656C76.5097 45.132 76.1643 45.496 75.6977 45.748C75.231 46 74.7083 46.126 74.1297 46.126C73.215 46.126 72.4683 45.846 71.8897 45.286C71.311 44.7167 71.0217 43.8953 71.0217 42.822V38.356H71.9877V42.71C71.9877 43.5407 72.193 44.1753 72.6037 44.614C73.0237 45.0527 73.593 45.272 74.3117 45.272C75.049 45.272 75.637 45.0387 76.0757 44.572C76.5143 44.1053 76.7337 43.4193 76.7337 42.514V38.356H77.7137ZM82.9611 39.182H81.1831V46H80.2031V39.182H79.1391V38.356H80.2031V37.824C80.2031 36.9933 80.4131 36.382 80.8331 35.99C81.2624 35.598 81.9531 35.402 82.9051 35.402V36.242C82.2704 36.242 81.8224 36.3633 81.5611 36.606C81.3091 36.8487 81.1831 37.2547 81.1831 37.824V38.356H82.9611V39.182ZM84.0558 42.164C84.0558 41.38 84.2098 40.694 84.5178 40.106C84.8351 39.5087 85.2691 39.0513 85.8198 38.734C86.3798 38.4073 87.0098 38.244 87.7098 38.244C88.4378 38.244 89.0631 38.412 89.5858 38.748C90.1178 39.084 90.5005 39.5133 90.7338 40.036V38.356H91.7138V46H90.7338V44.306C90.4911 44.8287 90.1038 45.2627 89.5718 45.608C89.0491 45.944 88.4238 46.112 87.6958 46.112C87.0051 46.112 86.3798 45.9487 85.8198 45.622C85.2691 45.2953 84.8351 44.8333 84.5178 44.236C84.2098 43.6387 84.0558 42.948 84.0558 42.164ZM90.7338 42.178C90.7338 41.562 90.6078 41.0207 90.3558 40.554C90.1038 40.0873 89.7585 39.728 89.3198 39.476C88.8905 39.224 88.4145 39.098 87.8918 39.098C87.3505 39.098 86.8651 39.2193 86.4358 39.462C86.0065 39.7047 85.6658 40.0593 85.4138 40.526C85.1711 40.9833 85.0498 41.5293 85.0498 42.164C85.0498 42.7893 85.1711 43.34 85.4138 43.816C85.6658 44.2827 86.0065 44.642 86.4358 44.894C86.8651 45.1367 87.3505 45.258 87.8918 45.258C88.4145 45.258 88.8905 45.132 89.3198 44.88C89.7585 44.628 90.1038 44.2687 90.3558 43.802C90.6078 43.3353 90.7338 42.794 90.7338 42.178ZM93.5031 42.178C93.5031 41.3847 93.6617 40.694 93.9791 40.106C94.2964 39.5087 94.7351 39.0513 95.2951 38.734C95.8551 38.4073 96.4944 38.244 97.2131 38.244C98.1557 38.244 98.9304 38.4773 99.5371 38.944C100.153 39.4107 100.55 40.0453 100.727 40.848H99.6771C99.5464 40.2973 99.2617 39.868 98.8231 39.56C98.3937 39.2427 97.8571 39.084 97.2131 39.084C96.6997 39.084 96.2377 39.2007 95.8271 39.434C95.4164 39.6673 95.0897 40.0173 94.8471 40.484C94.6137 40.9413 94.4971 41.506 94.4971 42.178C94.4971 42.85 94.6137 43.4193 94.8471 43.886C95.0897 44.3527 95.4164 44.7027 95.8271 44.936C96.2377 45.1693 96.6997 45.286 97.2131 45.286C97.8571 45.286 98.3937 45.132 98.8231 44.824C99.2617 44.5067 99.5464 44.068 99.6771 43.508H100.727C100.55 44.292 100.153 44.922 99.5371 45.398C98.9211 45.874 98.1464 46.112 97.2131 46.112C96.4944 46.112 95.8551 45.9533 95.2951 45.636C94.7351 45.3093 94.2964 44.852 93.9791 44.264C93.6617 43.6667 93.5031 42.9713 93.5031 42.178ZM103.811 39.182V43.928C103.811 44.3947 103.9 44.7167 104.077 44.894C104.254 45.0713 104.567 45.16 105.015 45.16H105.911V46H104.861C104.17 46 103.657 45.8413 103.321 45.524C102.985 45.1973 102.817 44.6653 102.817 43.928V39.182H101.753V38.356H102.817V36.438H103.811V38.356H105.911V39.182H103.811ZM114.149 38.356V46H113.169V44.656C112.945 45.132 112.6 45.496 112.133 45.748C111.667 46 111.144 46.126 110.565 46.126C109.651 46.126 108.904 45.846 108.325 45.286C107.747 44.7167 107.457 43.8953 107.457 42.822V38.356H108.423V42.71C108.423 43.5407 108.629 44.1753 109.039 44.614C109.459 45.0527 110.029 45.272 110.747 45.272C111.485 45.272 112.073 45.0387 112.511 44.572C112.95 44.1053 113.169 43.4193 113.169 42.514V38.356H114.149ZM117.367 39.714C117.581 39.238 117.908 38.8693 118.347 38.608C118.795 38.3467 119.341 38.216 119.985 38.216V39.238H119.719C119.009 39.238 118.44 39.4293 118.011 39.812C117.581 40.1947 117.367 40.834 117.367 41.73V46H116.387V38.356H117.367V39.714ZM128.375 41.786C128.375 42.122 128.366 42.3787 128.347 42.556H122.005C122.033 43.1347 122.173 43.6293 122.425 44.04C122.677 44.4507 123.008 44.7633 123.419 44.978C123.83 45.1833 124.278 45.286 124.763 45.286C125.398 45.286 125.93 45.132 126.359 44.824C126.798 44.516 127.087 44.1007 127.227 43.578H128.263C128.076 44.3247 127.675 44.936 127.059 45.412C126.452 45.8787 125.687 46.112 124.763 46.112C124.044 46.112 123.4 45.9533 122.831 45.636C122.262 45.3093 121.814 44.852 121.487 44.264C121.17 43.6667 121.011 42.9713 121.011 42.178C121.011 41.3847 121.17 40.6893 121.487 40.092C121.804 39.4947 122.248 39.0373 122.817 38.72C123.386 38.4027 124.035 38.244 124.763 38.244C125.491 38.244 126.126 38.4027 126.667 38.72C127.218 39.0373 127.638 39.4667 127.927 40.008C128.226 40.54 128.375 41.1327 128.375 41.786ZM127.381 41.758C127.39 41.1887 127.274 40.7033 127.031 40.302C126.798 39.9007 126.476 39.5973 126.065 39.392C125.654 39.1867 125.206 39.084 124.721 39.084C123.993 39.084 123.372 39.3173 122.859 39.784C122.346 40.2507 122.061 40.9087 122.005 41.758H127.381ZM131.148 39.714C131.363 39.238 131.689 38.8693 132.128 38.608C132.576 38.3467 133.122 38.216 133.766 38.216V39.238H133.5C132.791 39.238 132.221 39.4293 131.792 39.812C131.363 40.1947 131.148 40.834 131.148 41.73V46H130.168V38.356H131.148V39.714Z" fill="black"/>
<path d="M1004.73 36.214C1005.81 36.214 1006.74 36.41 1007.51 36.802C1008.29 37.194 1008.88 37.7587 1009.29 38.496C1009.7 39.2333 1009.91 40.1107 1009.91 41.128C1009.91 42.136 1009.7 43.0087 1009.29 43.746C1008.88 44.474 1008.29 45.034 1007.51 45.426C1006.74 45.8087 1005.81 46 1004.73 46H1001.83V36.214H1004.73ZM1004.73 45.188C1006.09 45.188 1007.12 44.8333 1007.83 44.124C1008.55 43.4053 1008.91 42.4067 1008.91 41.128C1008.91 39.84 1008.55 38.8367 1007.83 38.118C1007.12 37.39 1006.09 37.026 1004.73 37.026H1002.81V45.188H1004.73ZM1018.63 41.786C1018.63 42.122 1018.62 42.3787 1018.6 42.556H1012.26C1012.29 43.1347 1012.43 43.6293 1012.68 44.04C1012.93 44.4507 1013.26 44.7633 1013.67 44.978C1014.08 45.1833 1014.53 45.286 1015.02 45.286C1015.65 45.286 1016.18 45.132 1016.61 44.824C1017.05 44.516 1017.34 44.1007 1017.48 43.578H1018.52C1018.33 44.3247 1017.93 44.936 1017.31 45.412C1016.71 45.8787 1015.94 46.112 1015.02 46.112C1014.3 46.112 1013.65 45.9533 1013.08 45.636C1012.51 45.3093 1012.07 44.852 1011.74 44.264C1011.42 43.6667 1011.26 42.9713 1011.26 42.178C1011.26 41.3847 1011.42 40.6893 1011.74 40.092C1012.06 39.4947 1012.5 39.0373 1013.07 38.72C1013.64 38.4027 1014.29 38.244 1015.02 38.244C1015.74 38.244 1016.38 38.4027 1016.92 38.72C1017.47 39.0373 1017.89 39.4667 1018.18 40.008C1018.48 40.54 1018.63 41.1327 1018.63 41.786ZM1017.63 41.758C1017.64 41.1887 1017.53 40.7033 1017.28 40.302C1017.05 39.9007 1016.73 39.5973 1016.32 39.392C1015.91 39.1867 1015.46 39.084 1014.97 39.084C1014.25 39.084 1013.63 39.3173 1013.11 39.784C1012.6 40.2507 1012.31 40.9087 1012.26 41.758H1017.63ZM1021.4 35.64V46H1020.42V35.64H1021.4ZM1024.11 36.914C1023.91 36.914 1023.75 36.844 1023.61 36.704C1023.47 36.564 1023.4 36.3913 1023.4 36.186C1023.4 35.9807 1023.47 35.8127 1023.61 35.682C1023.75 35.542 1023.91 35.472 1024.11 35.472C1024.31 35.472 1024.47 35.542 1024.61 35.682C1024.75 35.8127 1024.82 35.9807 1024.82 36.186C1024.82 36.3913 1024.75 36.564 1024.61 36.704C1024.47 36.844 1024.31 36.914 1024.11 36.914ZM1024.6 38.356V46H1023.62V38.356H1024.6ZM1029.54 45.048L1032.11 38.356H1033.15L1030.08 46H1028.98L1025.91 38.356H1026.96L1029.54 45.048ZM1041.39 41.786C1041.39 42.122 1041.38 42.3787 1041.36 42.556H1035.02C1035.05 43.1347 1035.19 43.6293 1035.44 44.04C1035.69 44.4507 1036.02 44.7633 1036.44 44.978C1036.85 45.1833 1037.29 45.286 1037.78 45.286C1038.41 45.286 1038.95 45.132 1039.38 44.824C1039.81 44.516 1040.1 44.1007 1040.24 43.578H1041.28C1041.09 44.3247 1040.69 44.936 1040.08 45.412C1039.47 45.8787 1038.7 46.112 1037.78 46.112C1037.06 46.112 1036.42 45.9533 1035.85 45.636C1035.28 45.3093 1034.83 44.852 1034.5 44.264C1034.19 43.6667 1034.03 42.9713 1034.03 42.178C1034.03 41.3847 1034.19 40.6893 1034.5 40.092C1034.82 39.4947 1035.26 39.0373 1035.83 38.72C1036.4 38.4027 1037.05 38.244 1037.78 38.244C1038.51 38.244 1039.14 38.4027 1039.68 38.72C1040.23 39.0373 1040.65 39.4667 1040.94 40.008C1041.24 40.54 1041.39 41.1327 1041.39 41.786ZM1040.4 41.758C1040.41 41.1887 1040.29 40.7033 1040.05 40.302C1039.81 39.9007 1039.49 39.5973 1039.08 39.392C1038.67 39.1867 1038.22 39.084 1037.74 39.084C1037.01 39.084 1036.39 39.3173 1035.88 39.784C1035.36 40.2507 1035.08 40.9087 1035.02 41.758H1040.4ZM1044.16 39.714C1044.38 39.238 1044.71 38.8693 1045.14 38.608C1045.59 38.3467 1046.14 38.216 1046.78 38.216V39.238H1046.52C1045.81 39.238 1045.24 39.4293 1044.81 39.812C1044.38 40.1947 1044.16 40.834 1044.16 41.73V46H1043.18V38.356H1044.16V39.714ZM1055.17 41.786C1055.17 42.122 1055.16 42.3787 1055.14 42.556H1048.8C1048.83 43.1347 1048.97 43.6293 1049.22 44.04C1049.47 44.4507 1049.81 44.7633 1050.22 44.978C1050.63 45.1833 1051.08 45.286 1051.56 45.286C1052.2 45.286 1052.73 45.132 1053.16 44.824C1053.6 44.516 1053.88 44.1007 1054.02 43.578H1055.06C1054.87 44.3247 1054.47 44.936 1053.86 45.412C1053.25 45.8787 1052.48 46.112 1051.56 46.112C1050.84 46.112 1050.2 45.9533 1049.63 45.636C1049.06 45.3093 1048.61 44.852 1048.28 44.264C1047.97 43.6667 1047.81 42.9713 1047.81 42.178C1047.81 41.3847 1047.97 40.6893 1048.28 40.092C1048.6 39.4947 1049.05 39.0373 1049.61 38.72C1050.18 38.4027 1050.83 38.244 1051.56 38.244C1052.29 38.244 1052.92 38.4027 1053.46 38.72C1054.02 39.0373 1054.44 39.4667 1054.72 40.008C1055.02 40.54 1055.17 41.1327 1055.17 41.786ZM1054.18 41.758C1054.19 41.1887 1054.07 40.7033 1053.83 40.302C1053.6 39.9007 1053.27 39.5973 1052.86 39.392C1052.45 39.1867 1052 39.084 1051.52 39.084C1050.79 39.084 1050.17 39.3173 1049.66 39.784C1049.14 40.2507 1048.86 40.9087 1048.8 41.758H1054.18ZM1056.52 42.164C1056.52 41.38 1056.68 40.694 1056.99 40.106C1057.31 39.5087 1057.75 39.0513 1058.3 38.734C1058.86 38.4073 1059.49 38.244 1060.19 38.244C1060.86 38.244 1061.46 38.4073 1062.01 38.734C1062.55 39.0607 1062.94 39.4853 1063.2 40.008V35.64H1064.18V46H1063.2V44.292C1062.96 44.824 1062.58 45.2627 1062.05 45.608C1061.52 45.944 1060.89 46.112 1060.17 46.112C1059.47 46.112 1058.84 45.9487 1058.28 45.622C1057.73 45.2953 1057.3 44.8333 1056.98 44.236C1056.67 43.6387 1056.52 42.948 1056.52 42.164ZM1063.2 42.178C1063.2 41.562 1063.07 41.0207 1062.82 40.554C1062.57 40.0873 1062.22 39.728 1061.78 39.476C1061.35 39.224 1060.88 39.098 1060.35 39.098C1059.81 39.098 1059.33 39.2193 1058.9 39.462C1058.47 39.7047 1058.13 40.0593 1057.88 40.526C1057.63 40.9833 1057.51 41.5293 1057.51 42.164C1057.51 42.7893 1057.63 43.34 1057.88 43.816C1058.13 44.2827 1058.47 44.642 1058.9 44.894C1059.33 45.1367 1059.81 45.258 1060.35 45.258C1060.88 45.258 1061.35 45.132 1061.78 44.88C1062.22 44.628 1062.57 44.2687 1062.82 43.802C1063.07 43.3353 1063.2 42.794 1063.2 42.178Z" fill="black"/>
<path d="M482.984 40.45C484.834 40.45 486.451 40.8167 487.834 41.55C489.218 42.2833 490.284 43.3167 491.034 44.65C491.801 45.9667 492.184 47.4917 492.184 49.225C492.184 50.9417 491.801 52.4667 491.034 53.8C490.284 55.1333 489.209 56.1667 487.809 56.9C486.426 57.6333 484.818 58 482.984 58H476.409V40.45H482.984ZM482.709 54.3C484.326 54.3 485.584 53.8583 486.484 52.975C487.384 52.0917 487.834 50.8417 487.834 49.225C487.834 47.6083 487.384 46.35 486.484 45.45C485.584 44.55 484.326 44.1 482.709 44.1H480.684V54.3H482.709ZM496.723 42.6C495.973 42.6 495.357 42.3833 494.873 41.95C494.407 41.5 494.173 40.95 494.173 40.3C494.173 39.6333 494.407 39.0833 494.873 38.65C495.357 38.2 495.973 37.975 496.723 37.975C497.457 37.975 498.057 38.2 498.523 38.65C499.007 39.0833 499.248 39.6333 499.248 40.3C499.248 40.95 499.007 41.5 498.523 41.95C498.057 42.3833 497.457 42.6 496.723 42.6ZM498.848 44.05V58H494.573V44.05H498.848ZM507.621 58.2C506.405 58.2 505.321 57.9917 504.371 57.575C503.421 57.1583 502.671 56.5917 502.121 55.875C501.571 55.1417 501.263 54.325 501.196 53.425H505.421C505.471 53.9083 505.696 54.3 506.096 54.6C506.496 54.9 506.988 55.05 507.571 55.05C508.105 55.05 508.513 54.95 508.796 54.75C509.096 54.5333 509.246 54.2583 509.246 53.925C509.246 53.525 509.038 53.2333 508.621 53.05C508.205 52.85 507.53 52.6333 506.596 52.4C505.596 52.1667 504.763 51.925 504.096 51.675C503.43 51.4083 502.855 51 502.371 50.45C501.888 49.8833 501.646 49.125 501.646 48.175C501.646 47.375 501.863 46.65 502.296 46C502.746 45.3333 503.396 44.8083 504.246 44.425C505.113 44.0417 506.138 43.85 507.321 43.85C509.071 43.85 510.446 44.2833 511.446 45.15C512.463 46.0167 513.046 47.1667 513.196 48.6H509.246C509.18 48.1167 508.963 47.7333 508.596 47.45C508.246 47.1667 507.78 47.025 507.196 47.025C506.696 47.025 506.313 47.125 506.046 47.325C505.78 47.5083 505.646 47.7667 505.646 48.1C505.646 48.5 505.855 48.8 506.271 49C506.705 49.2 507.371 49.4 508.271 49.6C509.305 49.8667 510.146 50.1333 510.796 50.4C511.446 50.65 512.013 51.0667 512.496 51.65C512.996 52.2167 513.255 52.9833 513.271 53.95C513.271 54.7667 513.038 55.5 512.571 56.15C512.121 56.7833 511.463 57.2833 510.596 57.65C509.746 58.0167 508.755 58.2 507.621 58.2ZM523.662 54.375V58H521.487C519.937 58 518.729 57.625 517.862 56.875C516.995 56.1083 516.562 54.8667 516.562 53.15V47.6H514.862V44.05H516.562V40.65H520.837V44.05H523.637V47.6H520.837V53.2C520.837 53.6167 520.937 53.9167 521.137 54.1C521.337 54.2833 521.67 54.375 522.137 54.375H523.662ZM530.318 46.375C530.818 45.6083 531.443 45.0083 532.193 44.575C532.943 44.125 533.776 43.9 534.693 43.9V48.425H533.518C532.451 48.425 531.651 48.6583 531.118 49.125C530.585 49.575 530.318 50.375 530.318 51.525V58H526.043V44.05H530.318V46.375ZM538.887 42.6C538.137 42.6 537.52 42.3833 537.037 41.95C536.57 41.5 536.337 40.95 536.337 40.3C536.337 39.6333 536.57 39.0833 537.037 38.65C537.52 38.2 538.137 37.975 538.887 37.975C539.62 37.975 540.22 38.2 540.687 38.65C541.17 39.0833 541.412 39.6333 541.412 40.3C541.412 40.95 541.17 41.5 540.687 41.95C540.22 42.3833 539.62 42.6 538.887 42.6ZM541.012 44.05V58H536.737V44.05H541.012ZM548.385 46.025C548.785 45.375 549.36 44.85 550.11 44.45C550.86 44.05 551.718 43.85 552.685 43.85C553.835 43.85 554.876 44.1417 555.81 44.725C556.743 45.3083 557.476 46.1417 558.01 47.225C558.56 48.3083 558.835 49.5667 558.835 51C558.835 52.4333 558.56 53.7 558.01 54.8C557.476 55.8833 556.743 56.725 555.81 57.325C554.876 57.9083 553.835 58.2 552.685 58.2C551.701 58.2 550.843 58.0083 550.11 57.625C549.376 57.225 548.801 56.7 548.385 56.05V58H544.11V39.5H548.385V46.025ZM554.485 51C554.485 49.9333 554.185 49.1 553.585 48.5C553.001 47.8833 552.276 47.575 551.41 47.575C550.56 47.575 549.835 47.8833 549.235 48.5C548.651 49.1167 548.36 49.9583 548.36 51.025C548.36 52.0917 548.651 52.9333 549.235 53.55C549.835 54.1667 550.56 54.475 551.41 54.475C552.26 54.475 552.985 54.1667 553.585 53.55C554.185 52.9167 554.485 52.0667 554.485 51ZM574.852 44.05V58H570.577V56.1C570.144 56.7167 569.552 57.2167 568.802 57.6C568.069 57.9667 567.252 58.15 566.352 58.15C565.286 58.15 564.344 57.9167 563.527 57.45C562.711 56.9667 562.077 56.275 561.627 55.375C561.177 54.475 560.952 53.4167 560.952 52.2V44.05H565.202V51.625C565.202 52.5583 565.444 53.2833 565.927 53.8C566.411 54.3167 567.061 54.575 567.877 54.575C568.711 54.575 569.369 54.3167 569.852 53.8C570.336 53.2833 570.577 52.5583 570.577 51.625V44.05H574.852ZM585.698 54.375V58H583.523C581.973 58 580.765 57.625 579.898 56.875C579.031 56.1083 578.598 54.8667 578.598 53.15V47.6H576.898V44.05H578.598V40.65H582.873V44.05H585.673V47.6H582.873V53.2C582.873 53.6167 582.973 53.9167 583.173 54.1C583.373 54.2833 583.706 54.375 584.173 54.375H585.698ZM594.429 58.2C593.063 58.2 591.829 57.9083 590.729 57.325C589.646 56.7417 588.788 55.9083 588.154 54.825C587.538 53.7417 587.229 52.475 587.229 51.025C587.229 49.5917 587.546 48.3333 588.179 47.25C588.813 46.15 589.679 45.3083 590.779 44.725C591.879 44.1417 593.113 43.85 594.479 43.85C595.846 43.85 597.079 44.1417 598.179 44.725C599.279 45.3083 600.146 46.15 600.779 47.25C601.413 48.3333 601.729 49.5917 601.729 51.025C601.729 52.4583 601.404 53.725 600.754 54.825C600.121 55.9083 599.246 56.7417 598.129 57.325C597.029 57.9083 595.796 58.2 594.429 58.2ZM594.429 54.5C595.246 54.5 595.938 54.2 596.504 53.6C597.088 53 597.379 52.1417 597.379 51.025C597.379 49.9083 597.096 49.05 596.529 48.45C595.979 47.85 595.296 47.55 594.479 47.55C593.646 47.55 592.954 47.85 592.404 48.45C591.854 49.0333 591.579 49.8917 591.579 51.025C591.579 52.1417 591.846 53 592.379 53.6C592.929 54.2 593.613 54.5 594.429 54.5ZM608.272 46.375C608.772 45.6083 609.397 45.0083 610.147 44.575C610.897 44.125 611.731 43.9 612.647 43.9V48.425H611.472C610.406 48.425 609.606 48.6583 609.072 49.125C608.539 49.575 608.272 50.375 608.272 51.525V58H603.997V44.05H608.272V46.375Z" fill="black"/>
<line x1="97" y1="15.5" x2="523" y2="15.5" stroke="#CCCCCC"/>
<line x1="564" y1="15.5" x2="1022" y2="15.5" stroke="#CCCCCC"/>
<circle cx="544" cy="16" r="15.5" stroke="#D9D9D9"/>
<circle cx="544" cy="16" r="12" fill="#7BBB6B"/>
<circle cx="1032.5" cy="15.5" r="9" stroke="#D9D9D9"/>
<circle cx="1032.5" cy="15.5" r="6.5" fill="black"/>
<circle cx="86.5" cy="15.5" r="9" stroke="#D9D9D9"/>
<circle cx="86.5" cy="15.5" r="6.5" fill="black"/>
</svg>
