<svg width="1120" height="86" viewBox="0 0 1120 86" fill="none" xmlns="http://www.w3.org/2000/svg">
<path d="M525.111 80.105C524.421 80.105 523.811 79.985 523.281 79.745C522.761 79.505 522.351 79.17 522.051 78.74C521.751 78.31 521.591 77.83 521.571 77.3H522.681C522.731 77.81 522.956 78.26 523.356 78.65C523.756 79.03 524.341 79.22 525.111 79.22C525.821 79.22 526.381 79.04 526.791 78.68C527.211 78.31 527.421 77.845 527.421 77.285C527.421 76.835 527.306 76.475 527.076 76.205C526.846 75.925 526.561 75.72 526.221 75.59C525.881 75.45 525.411 75.3 524.811 75.14C524.111 74.95 523.556 74.765 523.146 74.585C522.736 74.405 522.386 74.125 522.096 73.745C521.806 73.365 521.661 72.85 521.661 72.2C521.661 71.66 521.801 71.18 522.081 70.76C522.361 70.33 522.756 69.995 523.266 69.755C523.776 69.515 524.361 69.395 525.021 69.395C525.991 69.395 526.771 69.635 527.361 70.115C527.961 70.585 528.306 71.195 528.396 71.945H527.256C527.186 71.515 526.951 71.135 526.551 70.805C526.151 70.465 525.611 70.295 524.931 70.295C524.301 70.295 523.776 70.465 523.356 70.805C522.936 71.135 522.726 71.59 522.726 72.17C522.726 72.61 522.841 72.965 523.071 73.235C523.301 73.505 523.586 73.71 523.926 73.85C524.276 73.99 524.746 74.14 525.336 74.3C526.016 74.49 526.566 74.68 526.986 74.87C527.406 75.05 527.761 75.33 528.051 75.71C528.341 76.09 528.486 76.6 528.486 77.24C528.486 77.73 528.356 78.195 528.096 78.635C527.836 79.075 527.451 79.43 526.941 79.7C526.431 79.97 525.821 80.105 525.111 80.105ZM531.88 72.695V77.78C531.88 78.28 531.975 78.625 532.165 78.815C532.355 79.005 532.69 79.1 533.17 79.1H534.13V80H533.005C532.265 80 531.715 79.83 531.355 79.49C530.995 79.14 530.815 78.57 530.815 77.78V72.695H529.675V71.81H530.815V69.755H531.88V71.81H534.13V72.695H531.88ZM535.382 75.89C535.382 75.05 535.547 74.315 535.877 73.685C536.217 73.045 536.682 72.555 537.272 72.215C537.872 71.865 538.547 71.69 539.297 71.69C540.077 71.69 540.747 71.87 541.307 72.23C541.877 72.59 542.287 73.05 542.537 73.61V71.81H543.587V80H542.537V78.185C542.277 78.745 541.862 79.21 541.292 79.58C540.732 79.94 540.062 80.12 539.282 80.12C538.542 80.12 537.872 79.945 537.272 79.595C536.682 79.245 536.217 78.75 535.877 78.11C535.547 77.47 535.382 76.73 535.382 75.89ZM542.537 75.905C542.537 75.245 542.402 74.665 542.132 74.165C541.862 73.665 541.492 73.28 541.022 73.01C540.562 72.74 540.052 72.605 539.492 72.605C538.912 72.605 538.392 72.735 537.932 72.995C537.472 73.255 537.107 73.635 536.837 74.135C536.577 74.625 536.447 75.21 536.447 75.89C536.447 76.56 536.577 77.15 536.837 77.66C537.107 78.16 537.472 78.545 537.932 78.815C538.392 79.075 538.912 79.205 539.492 79.205C540.052 79.205 540.562 79.07 541.022 78.8C541.492 78.53 541.862 78.145 542.132 77.645C542.402 77.145 542.537 76.565 542.537 75.905ZM547.349 72.695V77.78C547.349 78.28 547.444 78.625 547.634 78.815C547.824 79.005 548.159 79.1 548.639 79.1H549.599V80H548.474C547.734 80 547.184 79.83 546.824 79.49C546.464 79.14 546.284 78.57 546.284 77.78V72.695H545.144V71.81H546.284V69.755H547.349V71.81H549.599V72.695H547.349ZM558.425 71.81V80H557.375V78.56C557.135 79.07 556.765 79.46 556.265 79.73C555.765 80 555.205 80.135 554.585 80.135C553.605 80.135 552.805 79.835 552.185 79.235C551.565 78.625 551.255 77.745 551.255 76.595V71.81H552.29V76.475C552.29 77.365 552.51 78.045 552.95 78.515C553.4 78.985 554.01 79.22 554.78 79.22C555.57 79.22 556.2 78.97 556.67 78.47C557.14 77.97 557.375 77.235 557.375 76.265V71.81H558.425ZM563.643 80.12C562.703 80.12 561.933 79.905 561.333 79.475C560.743 79.035 560.413 78.44 560.343 77.69H561.423C561.473 78.15 561.688 78.525 562.068 78.815C562.458 79.095 562.978 79.235 563.628 79.235C564.198 79.235 564.643 79.1 564.963 78.83C565.293 78.56 565.458 78.225 565.458 77.825C565.458 77.545 565.368 77.315 565.188 77.135C565.008 76.955 564.778 76.815 564.498 76.715C564.228 76.605 563.858 76.49 563.388 76.37C562.778 76.21 562.283 76.05 561.903 75.89C561.523 75.73 561.198 75.495 560.928 75.185C560.668 74.865 560.538 74.44 560.538 73.91C560.538 73.51 560.658 73.14 560.898 72.8C561.138 72.46 561.478 72.19 561.918 71.99C562.358 71.79 562.858 71.69 563.418 71.69C564.298 71.69 565.008 71.915 565.548 72.365C566.088 72.805 566.378 73.415 566.418 74.195H565.368C565.338 73.715 565.148 73.33 564.798 73.04C564.458 72.74 563.988 72.59 563.388 72.59C562.858 72.59 562.428 72.715 562.098 72.965C561.768 73.215 561.603 73.525 561.603 73.895C561.603 74.215 561.698 74.48 561.888 74.69C562.088 74.89 562.333 75.05 562.623 75.17C562.913 75.28 563.303 75.405 563.793 75.545C564.383 75.705 564.853 75.86 565.203 76.01C565.553 76.16 565.853 76.38 566.103 76.67C566.353 76.96 566.483 77.345 566.493 77.825C566.493 78.265 566.373 78.66 566.133 79.01C565.893 79.35 565.558 79.62 565.128 79.82C564.698 80.02 564.203 80.12 563.643 80.12Z" fill="black"/>
<path d="M60.9728 36.1V43H60.2728V37.49L57.8128 43H57.3028L54.8428 37.51V43H54.1428V36.1H54.8828L57.5528 42.08L60.2228 36.1H60.9728ZM62.2407 40.26C62.2407 39.7 62.3507 39.21 62.5707 38.79C62.7974 38.3633 63.1074 38.0367 63.5007 37.81C63.9007 37.5767 64.3507 37.46 64.8507 37.46C65.3707 37.46 65.8174 37.58 66.1907 37.82C66.5707 38.06 66.8441 38.3667 67.0107 38.74V37.54H67.7107V43H67.0107V41.79C66.8374 42.1633 66.5607 42.4733 66.1807 42.72C65.8074 42.96 65.3607 43.08 64.8407 43.08C64.3474 43.08 63.9007 42.9633 63.5007 42.73C63.1074 42.4967 62.7974 42.1667 62.5707 41.74C62.3507 41.3133 62.2407 40.82 62.2407 40.26ZM67.0107 40.27C67.0107 39.83 66.9207 39.4433 66.7407 39.11C66.5607 38.7767 66.3141 38.52 66.0007 38.34C65.6941 38.16 65.3541 38.07 64.9807 38.07C64.5941 38.07 64.2474 38.1567 63.9407 38.33C63.6341 38.5033 63.3907 38.7567 63.2107 39.09C63.0374 39.4167 62.9507 39.8067 62.9507 40.26C62.9507 40.7067 63.0374 41.1 63.2107 41.44C63.3907 41.7733 63.6341 42.03 63.9407 42.21C64.2474 42.3833 64.5941 42.47 64.9807 42.47C65.3541 42.47 65.6941 42.38 66.0007 42.2C66.3141 42.02 66.5607 41.7633 66.7407 41.43C66.9207 41.0967 67.0107 40.71 67.0107 40.27ZM71.8688 37.44C72.5221 37.44 73.0555 37.6433 73.4688 38.05C73.8821 38.45 74.0888 39.0333 74.0888 39.8V43H73.3988V39.88C73.3988 39.2867 73.2488 38.8333 72.9488 38.52C72.6555 38.2067 72.2521 38.05 71.7388 38.05C71.2121 38.05 70.7921 38.2167 70.4788 38.55C70.1655 38.8833 70.0088 39.3733 70.0088 40.02V43H69.3088V37.54H70.0088V38.47C70.1821 38.1367 70.4321 37.8833 70.7588 37.71C71.0855 37.53 71.4555 37.44 71.8688 37.44ZM80.3669 37.54V43H79.6669V42.04C79.5069 42.38 79.2602 42.64 78.9269 42.82C78.5936 43 78.2202 43.09 77.8069 43.09C77.1536 43.09 76.6202 42.89 76.2069 42.49C75.7936 42.0833 75.5869 41.4967 75.5869 40.73V37.54H76.2769V40.65C76.2769 41.2433 76.4236 41.6967 76.7169 42.01C77.0169 42.3233 77.4236 42.48 77.9369 42.48C78.4636 42.48 78.8836 42.3133 79.1969 41.98C79.5102 41.6467 79.6669 41.1567 79.6669 40.51V37.54H80.3669ZM84.115 38.13H82.845V43H82.145V38.13H81.385V37.54H82.145V37.16C82.145 36.5667 82.295 36.13 82.595 35.85C82.9017 35.57 83.395 35.43 84.075 35.43V36.03C83.6217 36.03 83.3017 36.1167 83.115 36.29C82.935 36.4633 82.845 36.7533 82.845 37.16V37.54H84.115V38.13ZM84.897 40.26C84.897 39.7 85.007 39.21 85.227 38.79C85.4537 38.3633 85.7637 38.0367 86.157 37.81C86.557 37.5767 87.007 37.46 87.507 37.46C88.027 37.46 88.4737 37.58 88.847 37.82C89.227 38.06 89.5003 38.3667 89.667 38.74V37.54H90.367V43H89.667V41.79C89.4937 42.1633 89.217 42.4733 88.837 42.72C88.4637 42.96 88.017 43.08 87.497 43.08C87.0037 43.08 86.557 42.9633 86.157 42.73C85.7637 42.4967 85.4537 42.1667 85.227 41.74C85.007 41.3133 84.897 40.82 84.897 40.26ZM89.667 40.27C89.667 39.83 89.577 39.4433 89.397 39.11C89.217 38.7767 88.9703 38.52 88.657 38.34C88.3503 38.16 88.0103 38.07 87.637 38.07C87.2503 38.07 86.9037 38.1567 86.597 38.33C86.2903 38.5033 86.047 38.7567 85.867 39.09C85.6937 39.4167 85.607 39.8067 85.607 40.26C85.607 40.7067 85.6937 41.1 85.867 41.44C86.047 41.7733 86.2903 42.03 86.597 42.21C86.9037 42.3833 87.2503 42.47 87.637 42.47C88.0103 42.47 88.3503 42.38 88.657 42.2C88.9703 42.02 89.217 41.7633 89.397 41.43C89.577 41.0967 89.667 40.71 89.667 40.27ZM91.645 40.27C91.645 39.7033 91.7584 39.21 91.985 38.79C92.2117 38.3633 92.525 38.0367 92.925 37.81C93.325 37.5767 93.7817 37.46 94.295 37.46C94.9684 37.46 95.5217 37.6267 95.955 37.96C96.395 38.2933 96.6784 38.7467 96.805 39.32H96.055C95.9617 38.9267 95.7584 38.62 95.445 38.4C95.1384 38.1733 94.755 38.06 94.295 38.06C93.9284 38.06 93.5984 38.1433 93.305 38.31C93.0117 38.4767 92.7784 38.7267 92.605 39.06C92.4384 39.3867 92.355 39.79 92.355 40.27C92.355 40.75 92.4384 41.1567 92.605 41.49C92.7784 41.8233 93.0117 42.0733 93.305 42.24C93.5984 42.4067 93.9284 42.49 94.295 42.49C94.755 42.49 95.1384 42.38 95.445 42.16C95.7584 41.9333 95.9617 41.62 96.055 41.22H96.805C96.6784 41.78 96.395 42.23 95.955 42.57C95.515 42.91 94.9617 43.08 94.295 43.08C93.7817 43.08 93.325 42.9667 92.925 42.74C92.525 42.5067 92.2117 42.18 91.985 41.76C91.7584 41.3333 91.645 40.8367 91.645 40.27ZM99.0079 38.13V41.52C99.0079 41.8533 99.0712 42.0833 99.1979 42.21C99.3245 42.3367 99.5479 42.4 99.8679 42.4H100.508V43H99.7579C99.2645 43 98.8979 42.8867 98.6579 42.66C98.4179 42.4267 98.2979 42.0467 98.2979 41.52V38.13H97.5379V37.54H98.2979V36.17H99.0079V37.54H100.508V38.13H99.0079ZM106.392 37.54V43H105.692V42.04C105.532 42.38 105.286 42.64 104.952 42.82C104.619 43 104.246 43.09 103.832 43.09C103.179 43.09 102.646 42.89 102.232 42.49C101.819 42.0833 101.612 41.4967 101.612 40.73V37.54H102.302V40.65C102.302 41.2433 102.449 41.6967 102.742 42.01C103.042 42.3233 103.449 42.48 103.962 42.48C104.489 42.48 104.909 42.3133 105.222 41.98C105.536 41.6467 105.692 41.1567 105.692 40.51V37.54H106.392ZM108.69 38.51C108.844 38.17 109.077 37.9067 109.39 37.72C109.71 37.5333 110.1 37.44 110.56 37.44V38.17H110.37C109.864 38.17 109.457 38.3067 109.15 38.58C108.844 38.8533 108.69 39.31 108.69 39.95V43H107.99V37.54H108.69V38.51ZM116.553 39.99C116.553 40.23 116.547 40.4133 116.533 40.54H112.003C112.023 40.9533 112.123 41.3067 112.303 41.6C112.483 41.8933 112.72 42.1167 113.013 42.27C113.307 42.4167 113.627 42.49 113.973 42.49C114.427 42.49 114.807 42.38 115.113 42.16C115.427 41.94 115.633 41.6433 115.733 41.27H116.473C116.34 41.8033 116.053 42.24 115.613 42.58C115.18 42.9133 114.633 43.08 113.973 43.08C113.46 43.08 113 42.9667 112.593 42.74C112.187 42.5067 111.867 42.18 111.633 41.76C111.407 41.3333 111.293 40.8367 111.293 40.27C111.293 39.7033 111.407 39.2067 111.633 38.78C111.86 38.3533 112.177 38.0267 112.583 37.8C112.99 37.5733 113.453 37.46 113.973 37.46C114.493 37.46 114.947 37.5733 115.333 37.8C115.727 38.0267 116.027 38.3333 116.233 38.72C116.447 39.1 116.553 39.5233 116.553 39.99ZM115.843 39.97C115.85 39.5633 115.767 39.2167 115.593 38.93C115.427 38.6433 115.197 38.4267 114.903 38.28C114.61 38.1333 114.29 38.06 113.943 38.06C113.423 38.06 112.98 38.2267 112.613 38.56C112.247 38.8933 112.043 39.3633 112.003 39.97H115.843ZM118.534 38.51C118.688 38.17 118.921 37.9067 119.234 37.72C119.554 37.5333 119.944 37.44 120.404 37.44V38.17H120.214C119.708 38.17 119.301 38.3067 118.994 38.58C118.688 38.8533 118.534 39.31 118.534 39.95V43H117.834V37.54H118.534V38.51Z" fill="black"/>
<path d="M1012.8 33.01C1013.58 33.01 1014.24 33.15 1014.79 33.43C1015.35 33.71 1015.77 34.1133 1016.06 34.64C1016.36 35.1667 1016.5 35.7933 1016.5 36.52C1016.5 37.24 1016.36 37.8633 1016.06 38.39C1015.77 38.91 1015.35 39.31 1014.79 39.59C1014.24 39.8633 1013.58 40 1012.8 40H1010.73V33.01H1012.8ZM1012.8 39.42C1013.78 39.42 1014.52 39.1667 1015.02 38.66C1015.54 38.1467 1015.79 37.4333 1015.79 36.52C1015.79 35.6 1015.54 34.8833 1015.02 34.37C1014.52 33.85 1013.78 33.59 1012.8 33.59H1011.43V39.42H1012.8ZM1022.73 36.99C1022.73 37.23 1022.73 37.4133 1022.71 37.54H1018.18C1018.2 37.9533 1018.3 38.3067 1018.48 38.6C1018.66 38.8933 1018.9 39.1167 1019.19 39.27C1019.49 39.4167 1019.81 39.49 1020.15 39.49C1020.61 39.49 1020.99 39.38 1021.29 39.16C1021.61 38.94 1021.81 38.6433 1021.91 38.27H1022.65C1022.52 38.8033 1022.23 39.24 1021.79 39.58C1021.36 39.9133 1020.81 40.08 1020.15 40.08C1019.64 40.08 1019.18 39.9667 1018.77 39.74C1018.37 39.5067 1018.05 39.18 1017.81 38.76C1017.59 38.3333 1017.47 37.8367 1017.47 37.27C1017.47 36.7033 1017.59 36.2067 1017.81 35.78C1018.04 35.3533 1018.36 35.0267 1018.76 34.8C1019.17 34.5733 1019.63 34.46 1020.15 34.46C1020.67 34.46 1021.13 34.5733 1021.51 34.8C1021.91 35.0267 1022.21 35.3333 1022.41 35.72C1022.63 36.1 1022.73 36.5233 1022.73 36.99ZM1022.02 36.97C1022.03 36.5633 1021.95 36.2167 1021.77 35.93C1021.61 35.6433 1021.38 35.4267 1021.08 35.28C1020.79 35.1333 1020.47 35.06 1020.12 35.06C1019.6 35.06 1019.16 35.2267 1018.79 35.56C1018.43 35.8933 1018.22 36.3633 1018.18 36.97H1022.02ZM1024.71 32.6V40H1024.01V32.6H1024.71ZM1026.65 33.51C1026.51 33.51 1026.39 33.46 1026.29 33.36C1026.19 33.26 1026.14 33.1367 1026.14 32.99C1026.14 32.8433 1026.19 32.7233 1026.29 32.63C1026.39 32.53 1026.51 32.48 1026.65 32.48C1026.79 32.48 1026.91 32.53 1027.01 32.63C1027.11 32.7233 1027.16 32.8433 1027.16 32.99C1027.16 33.1367 1027.11 33.26 1027.01 33.36C1026.91 33.46 1026.79 33.51 1026.65 33.51ZM1027 34.54V40H1026.3V34.54H1027ZM1030.53 39.32L1032.37 34.54H1033.11L1030.92 40H1030.13L1027.94 34.54H1028.69L1030.53 39.32ZM1038.99 36.99C1038.99 37.23 1038.99 37.4133 1038.97 37.54H1034.44C1034.46 37.9533 1034.56 38.3067 1034.74 38.6C1034.92 38.8933 1035.16 39.1167 1035.45 39.27C1035.75 39.4167 1036.07 39.49 1036.41 39.49C1036.87 39.49 1037.25 39.38 1037.55 39.16C1037.87 38.94 1038.07 38.6433 1038.17 38.27H1038.91C1038.78 38.8033 1038.49 39.24 1038.05 39.58C1037.62 39.9133 1037.07 40.08 1036.41 40.08C1035.9 40.08 1035.44 39.9667 1035.03 39.74C1034.63 39.5067 1034.31 39.18 1034.07 38.76C1033.85 38.3333 1033.73 37.8367 1033.73 37.27C1033.73 36.7033 1033.85 36.2067 1034.07 35.78C1034.3 35.3533 1034.62 35.0267 1035.02 34.8C1035.43 34.5733 1035.89 34.46 1036.41 34.46C1036.93 34.46 1037.39 34.5733 1037.77 34.8C1038.17 35.0267 1038.47 35.3333 1038.67 35.72C1038.89 36.1 1038.99 36.5233 1038.99 36.99ZM1038.28 36.97C1038.29 36.5633 1038.21 36.2167 1038.03 35.93C1037.87 35.6433 1037.64 35.4267 1037.34 35.28C1037.05 35.1333 1036.73 35.06 1036.38 35.06C1035.86 35.06 1035.42 35.2267 1035.05 35.56C1034.69 35.8933 1034.48 36.3633 1034.44 36.97H1038.28ZM1040.97 35.51C1041.13 35.17 1041.36 34.9067 1041.67 34.72C1041.99 34.5333 1042.38 34.44 1042.84 34.44V35.17H1042.65C1042.15 35.17 1041.74 35.3067 1041.43 35.58C1041.13 35.8533 1040.97 36.31 1040.97 36.95V40H1040.27V34.54H1040.97V35.51ZM1048.84 36.99C1048.84 37.23 1048.83 37.4133 1048.82 37.54H1044.29C1044.31 37.9533 1044.41 38.3067 1044.59 38.6C1044.77 38.8933 1045 39.1167 1045.3 39.27C1045.59 39.4167 1045.91 39.49 1046.26 39.49C1046.71 39.49 1047.09 39.38 1047.4 39.16C1047.71 38.94 1047.92 38.6433 1048.02 38.27H1048.76C1048.62 38.8033 1048.34 39.24 1047.9 39.58C1047.46 39.9133 1046.92 40.08 1046.26 40.08C1045.74 40.08 1045.28 39.9667 1044.88 39.74C1044.47 39.5067 1044.15 39.18 1043.92 38.76C1043.69 38.3333 1043.58 37.8367 1043.58 37.27C1043.58 36.7033 1043.69 36.2067 1043.92 35.78C1044.14 35.3533 1044.46 35.0267 1044.87 34.8C1045.27 34.5733 1045.74 34.46 1046.26 34.46C1046.78 34.46 1047.23 34.5733 1047.62 34.8C1048.01 35.0267 1048.31 35.3333 1048.52 35.72C1048.73 36.1 1048.84 36.5233 1048.84 36.99ZM1048.13 36.97C1048.13 36.5633 1048.05 36.2167 1047.88 35.93C1047.71 35.6433 1047.48 35.4267 1047.19 35.28C1046.89 35.1333 1046.57 35.06 1046.23 35.06C1045.71 35.06 1045.26 35.2267 1044.9 35.56C1044.53 35.8933 1044.33 36.3633 1044.29 36.97H1048.13ZM1049.8 37.26C1049.8 36.7 1049.91 36.21 1050.14 35.79C1050.37 35.3633 1050.68 35.0367 1051.07 34.81C1051.47 34.5767 1051.92 34.46 1052.42 34.46C1052.9 34.46 1053.33 34.5767 1053.72 34.81C1054.11 35.0433 1054.39 35.3467 1054.57 35.72V32.6H1055.27V40H1054.57V38.78C1054.4 39.16 1054.13 39.4733 1053.75 39.72C1053.37 39.96 1052.92 40.08 1052.41 40.08C1051.91 40.08 1051.46 39.9633 1051.06 39.73C1050.67 39.4967 1050.36 39.1667 1050.13 38.74C1049.91 38.3133 1049.8 37.82 1049.8 37.26ZM1054.57 37.27C1054.57 36.83 1054.48 36.4433 1054.3 36.11C1054.12 35.7767 1053.87 35.52 1053.56 35.34C1053.25 35.16 1052.91 35.07 1052.54 35.07C1052.15 35.07 1051.81 35.1567 1051.5 35.33C1051.19 35.5033 1050.95 35.7567 1050.77 36.09C1050.6 36.4167 1050.51 36.8067 1050.51 37.26C1050.51 37.7067 1050.6 38.1 1050.77 38.44C1050.95 38.7733 1051.19 39.03 1051.5 39.21C1051.81 39.3833 1052.15 39.47 1052.54 39.47C1052.91 39.47 1053.25 39.38 1053.56 39.2C1053.87 39.02 1054.12 38.7633 1054.3 38.43C1054.48 38.0967 1054.57 37.71 1054.57 37.27Z" fill="black"/>
<path d="M482.984 40.45C484.834 40.45 486.451 40.8167 487.834 41.55C489.218 42.2833 490.284 43.3167 491.034 44.65C491.801 45.9667 492.184 47.4917 492.184 49.225C492.184 50.9417 491.801 52.4667 491.034 53.8C490.284 55.1333 489.209 56.1667 487.809 56.9C486.426 57.6333 484.818 58 482.984 58H476.409V40.45H482.984ZM482.709 54.3C484.326 54.3 485.584 53.8583 486.484 52.975C487.384 52.0917 487.834 50.8417 487.834 49.225C487.834 47.6083 487.384 46.35 486.484 45.45C485.584 44.55 484.326 44.1 482.709 44.1H480.684V54.3H482.709ZM496.723 42.6C495.973 42.6 495.357 42.3833 494.873 41.95C494.407 41.5 494.173 40.95 494.173 40.3C494.173 39.6333 494.407 39.0833 494.873 38.65C495.357 38.2 495.973 37.975 496.723 37.975C497.457 37.975 498.057 38.2 498.523 38.65C499.007 39.0833 499.248 39.6333 499.248 40.3C499.248 40.95 499.007 41.5 498.523 41.95C498.057 42.3833 497.457 42.6 496.723 42.6ZM498.848 44.05V58H494.573V44.05H498.848ZM507.621 58.2C506.405 58.2 505.321 57.9917 504.371 57.575C503.421 57.1583 502.671 56.5917 502.121 55.875C501.571 55.1417 501.263 54.325 501.196 53.425H505.421C505.471 53.9083 505.696 54.3 506.096 54.6C506.496 54.9 506.988 55.05 507.571 55.05C508.105 55.05 508.513 54.95 508.796 54.75C509.096 54.5333 509.246 54.2583 509.246 53.925C509.246 53.525 509.038 53.2333 508.621 53.05C508.205 52.85 507.53 52.6333 506.596 52.4C505.596 52.1667 504.763 51.925 504.096 51.675C503.43 51.4083 502.855 51 502.371 50.45C501.888 49.8833 501.646 49.125 501.646 48.175C501.646 47.375 501.863 46.65 502.296 46C502.746 45.3333 503.396 44.8083 504.246 44.425C505.113 44.0417 506.138 43.85 507.321 43.85C509.071 43.85 510.446 44.2833 511.446 45.15C512.463 46.0167 513.046 47.1667 513.196 48.6H509.246C509.18 48.1167 508.963 47.7333 508.596 47.45C508.246 47.1667 507.78 47.025 507.196 47.025C506.696 47.025 506.313 47.125 506.046 47.325C505.78 47.5083 505.646 47.7667 505.646 48.1C505.646 48.5 505.855 48.8 506.271 49C506.705 49.2 507.371 49.4 508.271 49.6C509.305 49.8667 510.146 50.1333 510.796 50.4C511.446 50.65 512.013 51.0667 512.496 51.65C512.996 52.2167 513.255 52.9833 513.271 53.95C513.271 54.7667 513.038 55.5 512.571 56.15C512.121 56.7833 511.463 57.2833 510.596 57.65C509.746 58.0167 508.755 58.2 507.621 58.2ZM523.662 54.375V58H521.487C519.937 58 518.729 57.625 517.862 56.875C516.995 56.1083 516.562 54.8667 516.562 53.15V47.6H514.862V44.05H516.562V40.65H520.837V44.05H523.637V47.6H520.837V53.2C520.837 53.6167 520.937 53.9167 521.137 54.1C521.337 54.2833 521.67 54.375 522.137 54.375H523.662ZM530.318 46.375C530.818 45.6083 531.443 45.0083 532.193 44.575C532.943 44.125 533.776 43.9 534.693 43.9V48.425H533.518C532.451 48.425 531.651 48.6583 531.118 49.125C530.585 49.575 530.318 50.375 530.318 51.525V58H526.043V44.05H530.318V46.375ZM538.887 42.6C538.137 42.6 537.52 42.3833 537.037 41.95C536.57 41.5 536.337 40.95 536.337 40.3C536.337 39.6333 536.57 39.0833 537.037 38.65C537.52 38.2 538.137 37.975 538.887 37.975C539.62 37.975 540.22 38.2 540.687 38.65C541.17 39.0833 541.412 39.6333 541.412 40.3C541.412 40.95 541.17 41.5 540.687 41.95C540.22 42.3833 539.62 42.6 538.887 42.6ZM541.012 44.05V58H536.737V44.05H541.012ZM548.385 46.025C548.785 45.375 549.36 44.85 550.11 44.45C550.86 44.05 551.718 43.85 552.685 43.85C553.835 43.85 554.876 44.1417 555.81 44.725C556.743 45.3083 557.476 46.1417 558.01 47.225C558.56 48.3083 558.835 49.5667 558.835 51C558.835 52.4333 558.56 53.7 558.01 54.8C557.476 55.8833 556.743 56.725 555.81 57.325C554.876 57.9083 553.835 58.2 552.685 58.2C551.701 58.2 550.843 58.0083 550.11 57.625C549.376 57.225 548.801 56.7 548.385 56.05V58H544.11V39.5H548.385V46.025ZM554.485 51C554.485 49.9333 554.185 49.1 553.585 48.5C553.001 47.8833 552.276 47.575 551.41 47.575C550.56 47.575 549.835 47.8833 549.235 48.5C548.651 49.1167 548.36 49.9583 548.36 51.025C548.36 52.0917 548.651 52.9333 549.235 53.55C549.835 54.1667 550.56 54.475 551.41 54.475C552.26 54.475 552.985 54.1667 553.585 53.55C554.185 52.9167 554.485 52.0667 554.485 51ZM574.852 44.05V58H570.577V56.1C570.144 56.7167 569.552 57.2167 568.802 57.6C568.069 57.9667 567.252 58.15 566.352 58.15C565.286 58.15 564.344 57.9167 563.527 57.45C562.711 56.9667 562.077 56.275 561.627 55.375C561.177 54.475 560.952 53.4167 560.952 52.2V44.05H565.202V51.625C565.202 52.5583 565.444 53.2833 565.927 53.8C566.411 54.3167 567.061 54.575 567.877 54.575C568.711 54.575 569.369 54.3167 569.852 53.8C570.336 53.2833 570.577 52.5583 570.577 51.625V44.05H574.852ZM585.698 54.375V58H583.523C581.973 58 580.765 57.625 579.898 56.875C579.031 56.1083 578.598 54.8667 578.598 53.15V47.6H576.898V44.05H578.598V40.65H582.873V44.05H585.673V47.6H582.873V53.2C582.873 53.6167 582.973 53.9167 583.173 54.1C583.373 54.2833 583.706 54.375 584.173 54.375H585.698ZM594.429 58.2C593.063 58.2 591.829 57.9083 590.729 57.325C589.646 56.7417 588.788 55.9083 588.154 54.825C587.538 53.7417 587.229 52.475 587.229 51.025C587.229 49.5917 587.546 48.3333 588.179 47.25C588.813 46.15 589.679 45.3083 590.779 44.725C591.879 44.1417 593.113 43.85 594.479 43.85C595.846 43.85 597.079 44.1417 598.179 44.725C599.279 45.3083 600.146 46.15 600.779 47.25C601.413 48.3333 601.729 49.5917 601.729 51.025C601.729 52.4583 601.404 53.725 600.754 54.825C600.121 55.9083 599.246 56.7417 598.129 57.325C597.029 57.9083 595.796 58.2 594.429 58.2ZM594.429 54.5C595.246 54.5 595.938 54.2 596.504 53.6C597.088 53 597.379 52.1417 597.379 51.025C597.379 49.9083 597.096 49.05 596.529 48.45C595.979 47.85 595.296 47.55 594.479 47.55C593.646 47.55 592.954 47.85 592.404 48.45C591.854 49.0333 591.579 49.8917 591.579 51.025C591.579 52.1417 591.846 53 592.379 53.6C592.929 54.2 593.613 54.5 594.429 54.5ZM608.272 46.375C608.772 45.6083 609.397 45.0083 610.147 44.575C610.897 44.125 611.731 43.9 612.647 43.9V48.425H611.472C610.406 48.425 609.606 48.6583 609.072 49.125C608.539 49.575 608.272 50.375 608.272 51.525V58H603.997V44.05H608.272V46.375Z" fill="black"/>
<line x1="97" y1="15.5" x2="523" y2="15.5" stroke="#CCCCCC"/>
<line x1="564" y1="15.5" x2="1022" y2="15.5" stroke="#CCCCCC"/>
<circle cx="544" cy="16" r="15.5" stroke="#D9D9D9"/>
<circle cx="544" cy="16" r="12" fill="#7BBB6B"/>
<circle cx="1032.5" cy="15.5" r="9" stroke="#D9D9D9"/>
<circle cx="1032.5" cy="15.5" r="6.5" fill="black"/>
<circle cx="86.5" cy="15.5" r="9" stroke="#D9D9D9"/>
<circle cx="86.5" cy="15.5" r="6.5" fill="black"/>
</svg>
