<svg width="1137" height="94" viewBox="0 0 1137 94" fill="none" xmlns="http://www.w3.org/2000/svg">
<circle cx="1041" cy="16" r="15.5" stroke="#D9D9D9"/>
<circle cx="1041" cy="16" r="12" fill="#7BBB6B"/>
<circle cx="87.5" cy="15.5" r="9" stroke="#D9D9D9"/>
<circle cx="87.5" cy="15.5" r="6.5" fill="black"/>
<path d="M1022.11 88.105C1021.42 88.105 1020.81 87.985 1020.28 87.745C1019.76 87.505 1019.35 87.17 1019.05 86.74C1018.75 86.31 1018.59 85.83 1018.57 85.3H1019.68C1019.73 85.81 1019.96 86.26 1020.36 86.65C1020.76 87.03 1021.34 87.22 1022.11 87.22C1022.82 87.22 1023.38 87.04 1023.79 86.68C1024.21 86.31 1024.42 85.845 1024.42 85.285C1024.42 84.835 1024.31 84.475 1024.08 84.205C1023.85 83.925 1023.56 83.72 1023.22 83.59C1022.88 83.45 1022.41 83.3 1021.81 83.14C1021.11 82.95 1020.56 82.765 1020.15 82.585C1019.74 82.405 1019.39 82.125 1019.1 81.745C1018.81 81.365 1018.66 80.85 1018.66 80.2C1018.66 79.66 1018.8 79.18 1019.08 78.76C1019.36 78.33 1019.76 77.995 1020.27 77.755C1020.78 77.515 1021.36 77.395 1022.02 77.395C1022.99 77.395 1023.77 77.635 1024.36 78.115C1024.96 78.585 1025.31 79.195 1025.4 79.945H1024.26C1024.19 79.515 1023.95 79.135 1023.55 78.805C1023.15 78.465 1022.61 78.295 1021.93 78.295C1021.3 78.295 1020.78 78.465 1020.36 78.805C1019.94 79.135 1019.73 79.59 1019.73 80.17C1019.73 80.61 1019.84 80.965 1020.07 81.235C1020.3 81.505 1020.59 81.71 1020.93 81.85C1021.28 81.99 1021.75 82.14 1022.34 82.3C1023.02 82.49 1023.57 82.68 1023.99 82.87C1024.41 83.05 1024.76 83.33 1025.05 83.71C1025.34 84.09 1025.49 84.6 1025.49 85.24C1025.49 85.73 1025.36 86.195 1025.1 86.635C1024.84 87.075 1024.45 87.43 1023.94 87.7C1023.43 87.97 1022.82 88.105 1022.11 88.105ZM1028.88 80.695V85.78C1028.88 86.28 1028.97 86.625 1029.16 86.815C1029.35 87.005 1029.69 87.1 1030.17 87.1H1031.13V88H1030C1029.26 88 1028.71 87.83 1028.35 87.49C1027.99 87.14 1027.81 86.57 1027.81 85.78V80.695H1026.67V79.81H1027.81V77.755H1028.88V79.81H1031.13V80.695H1028.88ZM1032.38 83.89C1032.38 83.05 1032.55 82.315 1032.88 81.685C1033.22 81.045 1033.68 80.555 1034.27 80.215C1034.87 79.865 1035.55 79.69 1036.3 79.69C1037.08 79.69 1037.75 79.87 1038.31 80.23C1038.88 80.59 1039.29 81.05 1039.54 81.61V79.81H1040.59V88H1039.54V86.185C1039.28 86.745 1038.86 87.21 1038.29 87.58C1037.73 87.94 1037.06 88.12 1036.28 88.12C1035.54 88.12 1034.87 87.945 1034.27 87.595C1033.68 87.245 1033.22 86.75 1032.88 86.11C1032.55 85.47 1032.38 84.73 1032.38 83.89ZM1039.54 83.905C1039.54 83.245 1039.4 82.665 1039.13 82.165C1038.86 81.665 1038.49 81.28 1038.02 81.01C1037.56 80.74 1037.05 80.605 1036.49 80.605C1035.91 80.605 1035.39 80.735 1034.93 80.995C1034.47 81.255 1034.11 81.635 1033.84 82.135C1033.58 82.625 1033.45 83.21 1033.45 83.89C1033.45 84.56 1033.58 85.15 1033.84 85.66C1034.11 86.16 1034.47 86.545 1034.93 86.815C1035.39 87.075 1035.91 87.205 1036.49 87.205C1037.05 87.205 1037.56 87.07 1038.02 86.8C1038.49 86.53 1038.86 86.145 1039.13 85.645C1039.4 85.145 1039.54 84.565 1039.54 83.905ZM1044.35 80.695V85.78C1044.35 86.28 1044.44 86.625 1044.63 86.815C1044.82 87.005 1045.16 87.1 1045.64 87.1H1046.6V88H1045.47C1044.73 88 1044.18 87.83 1043.82 87.49C1043.46 87.14 1043.28 86.57 1043.28 85.78V80.695H1042.14V79.81H1043.28V77.755H1044.35V79.81H1046.6V80.695H1044.35ZM1055.43 79.81V88H1054.38V86.56C1054.14 87.07 1053.77 87.46 1053.27 87.73C1052.77 88 1052.21 88.135 1051.59 88.135C1050.61 88.135 1049.81 87.835 1049.19 87.235C1048.57 86.625 1048.26 85.745 1048.26 84.595V79.81H1049.29V84.475C1049.29 85.365 1049.51 86.045 1049.95 86.515C1050.4 86.985 1051.01 87.22 1051.78 87.22C1052.57 87.22 1053.2 86.97 1053.67 86.47C1054.14 85.97 1054.38 85.235 1054.38 84.265V79.81H1055.43ZM1060.64 88.12C1059.7 88.12 1058.93 87.905 1058.33 87.475C1057.74 87.035 1057.41 86.44 1057.34 85.69H1058.42C1058.47 86.15 1058.69 86.525 1059.07 86.815C1059.46 87.095 1059.98 87.235 1060.63 87.235C1061.2 87.235 1061.64 87.1 1061.96 86.83C1062.29 86.56 1062.46 86.225 1062.46 85.825C1062.46 85.545 1062.37 85.315 1062.19 85.135C1062.01 84.955 1061.78 84.815 1061.5 84.715C1061.23 84.605 1060.86 84.49 1060.39 84.37C1059.78 84.21 1059.28 84.05 1058.9 83.89C1058.52 83.73 1058.2 83.495 1057.93 83.185C1057.67 82.865 1057.54 82.44 1057.54 81.91C1057.54 81.51 1057.66 81.14 1057.9 80.8C1058.14 80.46 1058.48 80.19 1058.92 79.99C1059.36 79.79 1059.86 79.69 1060.42 79.69C1061.3 79.69 1062.01 79.915 1062.55 80.365C1063.09 80.805 1063.38 81.415 1063.42 82.195H1062.37C1062.34 81.715 1062.15 81.33 1061.8 81.04C1061.46 80.74 1060.99 80.59 1060.39 80.59C1059.86 80.59 1059.43 80.715 1059.1 80.965C1058.77 81.215 1058.6 81.525 1058.6 81.895C1058.6 82.215 1058.7 82.48 1058.89 82.69C1059.09 82.89 1059.33 83.05 1059.62 83.17C1059.91 83.28 1060.3 83.405 1060.79 83.545C1061.38 83.705 1061.85 83.86 1062.2 84.01C1062.55 84.16 1062.85 84.38 1063.1 84.67C1063.35 84.96 1063.48 85.345 1063.49 85.825C1063.49 86.265 1063.37 86.66 1063.13 87.01C1062.89 87.35 1062.56 87.62 1062.13 87.82C1061.7 88.02 1061.2 88.12 1060.64 88.12Z" fill="black"/>
<path d="M987.407 48.45C989.257 48.45 990.873 48.8167 992.257 49.55C993.64 50.2833 994.707 51.3167 995.457 52.65C996.223 53.9667 996.607 55.4917 996.607 57.225C996.607 58.9417 996.223 60.4667 995.457 61.8C994.707 63.1333 993.632 64.1667 992.232 64.9C990.848 65.6333 989.24 66 987.407 66H980.832V48.45H987.407ZM987.132 62.3C988.748 62.3 990.007 61.8583 990.907 60.975C991.807 60.0917 992.257 58.8417 992.257 57.225C992.257 55.6083 991.807 54.35 990.907 53.45C990.007 52.55 988.748 52.1 987.132 52.1H985.107V62.3H987.132ZM1012.15 58.8C1012.15 59.2 1012.12 59.6167 1012.07 60.05H1002.4C1002.46 60.9167 1002.74 61.5833 1003.22 62.05C1003.72 62.5 1004.33 62.725 1005.05 62.725C1006.11 62.725 1006.85 62.275 1007.27 61.375H1011.82C1011.59 62.2917 1011.16 63.1167 1010.55 63.85C1009.95 64.5833 1009.19 65.1583 1008.27 65.575C1007.35 65.9917 1006.33 66.2 1005.2 66.2C1003.83 66.2 1002.61 65.9083 1001.55 65.325C1000.48 64.7417 999.646 63.9083 999.046 62.825C998.446 61.7417 998.146 60.475 998.146 59.025C998.146 57.575 998.437 56.3083 999.021 55.225C999.621 54.1417 1000.45 53.3083 1001.52 52.725C1002.59 52.1417 1003.81 51.85 1005.2 51.85C1006.55 51.85 1007.75 52.1333 1008.8 52.7C1009.85 53.2667 1010.66 54.075 1011.25 55.125C1011.85 56.175 1012.15 57.4 1012.15 58.8ZM1007.77 57.675C1007.77 56.9417 1007.52 56.3583 1007.02 55.925C1006.52 55.4917 1005.9 55.275 1005.15 55.275C1004.43 55.275 1003.82 55.4833 1003.32 55.9C1002.84 56.3167 1002.54 56.9083 1002.42 57.675H1007.77ZM1018.68 47.5V66H1014.4V47.5H1018.68ZM1023.92 50.6C1023.17 50.6 1022.56 50.3833 1022.07 49.95C1021.61 49.5 1021.37 48.95 1021.37 48.3C1021.37 47.6333 1021.61 47.0833 1022.07 46.65C1022.56 46.2 1023.17 45.975 1023.92 45.975C1024.66 45.975 1025.26 46.2 1025.72 46.65C1026.21 47.0833 1026.45 47.6333 1026.45 48.3C1026.45 48.95 1026.21 49.5 1025.72 49.95C1025.26 50.3833 1024.66 50.6 1023.92 50.6ZM1026.05 52.05V66H1021.77V52.05H1026.05ZM1035.42 62L1038.45 52.05H1043L1038.05 66H1032.77L1027.82 52.05H1032.4L1035.42 62ZM1057.95 58.8C1057.95 59.2 1057.92 59.6167 1057.87 60.05H1048.2C1048.26 60.9167 1048.54 61.5833 1049.02 62.05C1049.52 62.5 1050.13 62.725 1050.85 62.725C1051.91 62.725 1052.65 62.275 1053.07 61.375H1057.62C1057.39 62.2917 1056.96 63.1167 1056.35 63.85C1055.75 64.5833 1054.99 65.1583 1054.07 65.575C1053.15 65.9917 1052.13 66.2 1051 66.2C1049.63 66.2 1048.41 65.9083 1047.35 65.325C1046.28 64.7417 1045.45 63.9083 1044.85 62.825C1044.25 61.7417 1043.95 60.475 1043.95 59.025C1043.95 57.575 1044.24 56.3083 1044.82 55.225C1045.42 54.1417 1046.25 53.3083 1047.32 52.725C1048.39 52.1417 1049.61 51.85 1051 51.85C1052.35 51.85 1053.55 52.1333 1054.6 52.7C1055.65 53.2667 1056.46 54.075 1057.05 55.125C1057.65 56.175 1057.95 57.4 1057.95 58.8ZM1053.57 57.675C1053.57 56.9417 1053.32 56.3583 1052.82 55.925C1052.32 55.4917 1051.7 55.275 1050.95 55.275C1050.23 55.275 1049.62 55.4833 1049.12 55.9C1048.64 56.3167 1048.34 56.9083 1048.22 57.675H1053.57ZM1064.48 54.375C1064.98 53.6083 1065.6 53.0083 1066.35 52.575C1067.1 52.125 1067.94 51.9 1068.85 51.9V56.425H1067.68C1066.61 56.425 1065.81 56.6583 1065.28 57.125C1064.74 57.575 1064.48 58.375 1064.48 59.525V66H1060.2V52.05H1064.48V54.375ZM1084.05 58.8C1084.05 59.2 1084.02 59.6167 1083.97 60.05H1074.3C1074.36 60.9167 1074.64 61.5833 1075.12 62.05C1075.62 62.5 1076.23 62.725 1076.95 62.725C1078.01 62.725 1078.75 62.275 1079.17 61.375H1083.72C1083.49 62.2917 1083.06 63.1167 1082.45 63.85C1081.85 64.5833 1081.09 65.1583 1080.17 65.575C1079.25 65.9917 1078.23 66.2 1077.1 66.2C1075.73 66.2 1074.51 65.9083 1073.45 65.325C1072.38 64.7417 1071.55 63.9083 1070.95 62.825C1070.35 61.7417 1070.05 60.475 1070.05 59.025C1070.05 57.575 1070.34 56.3083 1070.92 55.225C1071.52 54.1417 1072.35 53.3083 1073.42 52.725C1074.49 52.1417 1075.71 51.85 1077.1 51.85C1078.45 51.85 1079.65 52.1333 1080.7 52.7C1081.75 53.2667 1082.56 54.075 1083.15 55.125C1083.75 56.175 1084.05 57.4 1084.05 58.8ZM1079.67 57.675C1079.67 56.9417 1079.42 56.3583 1078.92 55.925C1078.42 55.4917 1077.8 55.275 1077.05 55.275C1076.33 55.275 1075.72 55.4833 1075.22 55.9C1074.74 56.3167 1074.44 56.9083 1074.32 57.675H1079.67ZM1085.45 59C1085.45 57.5667 1085.72 56.3083 1086.25 55.225C1086.8 54.1417 1087.54 53.3083 1088.48 52.725C1089.41 52.1417 1090.45 51.85 1091.6 51.85C1092.52 51.85 1093.35 52.0417 1094.1 52.425C1094.87 52.8083 1095.47 53.325 1095.9 53.975V47.5H1100.18V66H1095.9V64C1095.5 64.6667 1094.93 65.2 1094.18 65.6C1093.44 66 1092.58 66.2 1091.6 66.2C1090.45 66.2 1089.41 65.9083 1088.48 65.325C1087.54 64.725 1086.8 63.8833 1086.25 62.8C1085.72 61.7 1085.45 60.4333 1085.45 59ZM1095.9 59.025C1095.9 57.9583 1095.6 57.1167 1095 56.5C1094.42 55.8833 1093.7 55.575 1092.85 55.575C1092 55.575 1091.28 55.8833 1090.68 56.5C1090.09 57.1 1089.8 57.9333 1089.8 59C1089.8 60.0667 1090.09 60.9167 1090.68 61.55C1091.28 62.1667 1092 62.475 1092.85 62.475C1093.7 62.475 1094.42 62.1667 1095 61.55C1095.6 60.9333 1095.9 60.0917 1095.9 59.025Z" fill="black"/>
<path d="M511.55 38.214C512.633 38.214 513.562 38.41 514.336 38.802C515.111 39.194 515.704 39.7587 516.114 40.496C516.525 41.2333 516.73 42.1107 516.73 43.128C516.73 44.136 516.525 45.0087 516.114 45.746C515.704 46.474 515.111 47.034 514.336 47.426C513.562 47.8087 512.633 48 511.55 48H508.652V38.214H511.55ZM511.55 47.188C512.913 47.188 513.949 46.8333 514.658 46.124C515.377 45.4053 515.736 44.4067 515.736 43.128C515.736 41.84 515.377 40.8367 514.658 40.118C513.949 39.39 512.913 39.026 511.55 39.026H509.632V47.188H511.55ZM519.027 38.914C518.831 38.914 518.663 38.844 518.523 38.704C518.383 38.564 518.313 38.3913 518.313 38.186C518.313 37.9807 518.383 37.8127 518.523 37.682C518.663 37.542 518.831 37.472 519.027 37.472C519.223 37.472 519.391 37.542 519.531 37.682C519.671 37.8127 519.741 37.9807 519.741 38.186C519.741 38.3913 519.671 38.564 519.531 38.704C519.391 38.844 519.223 38.914 519.027 38.914ZM519.517 40.356V48H518.537V40.356H519.517ZM524.368 48.112C523.491 48.112 522.772 47.9113 522.212 47.51C521.662 47.0993 521.354 46.544 521.288 45.844H522.296C522.343 46.2733 522.544 46.6233 522.898 46.894C523.262 47.1553 523.748 47.286 524.354 47.286C524.886 47.286 525.302 47.16 525.6 46.908C525.908 46.656 526.062 46.3433 526.062 45.97C526.062 45.7087 525.978 45.494 525.81 45.326C525.642 45.158 525.428 45.0273 525.166 44.934C524.914 44.8313 524.569 44.724 524.13 44.612C523.561 44.4627 523.099 44.3133 522.744 44.164C522.39 44.0147 522.086 43.7953 521.834 43.506C521.592 43.2073 521.47 42.8107 521.47 42.316C521.47 41.9427 521.582 41.5973 521.806 41.28C522.03 40.9627 522.348 40.7107 522.758 40.524C523.169 40.3373 523.636 40.244 524.158 40.244C524.98 40.244 525.642 40.454 526.146 40.874C526.65 41.2847 526.921 41.854 526.958 42.582H525.978C525.95 42.134 525.773 41.7747 525.446 41.504C525.129 41.224 524.69 41.084 524.13 41.084C523.636 41.084 523.234 41.2007 522.926 41.434C522.618 41.6673 522.464 41.9567 522.464 42.302C522.464 42.6007 522.553 42.848 522.73 43.044C522.917 43.2307 523.146 43.38 523.416 43.492C523.687 43.5947 524.051 43.7113 524.508 43.842C525.059 43.9913 525.498 44.136 525.824 44.276C526.151 44.416 526.431 44.6213 526.664 44.892C526.898 45.1627 527.019 45.522 527.028 45.97C527.028 46.3807 526.916 46.7493 526.692 47.076C526.468 47.3933 526.156 47.6453 525.754 47.832C525.353 48.0187 524.891 48.112 524.368 48.112ZM530.147 41.182V45.928C530.147 46.3947 530.236 46.7167 530.413 46.894C530.59 47.0713 530.903 47.16 531.351 47.16H532.247V48H531.197C530.506 48 529.993 47.8413 529.657 47.524C529.321 47.1973 529.153 46.6653 529.153 45.928V41.182H528.089V40.356H529.153V38.438H530.147V40.356H532.247V41.182H530.147ZM534.843 41.714C535.058 41.238 535.384 40.8693 535.823 40.608C536.271 40.3467 536.817 40.216 537.461 40.216V41.238H537.195C536.486 41.238 535.916 41.4293 535.487 41.812C535.058 42.1947 534.843 42.834 534.843 43.73V48H533.863V40.356H534.843V41.714ZM539.425 38.914C539.229 38.914 539.061 38.844 538.921 38.704C538.781 38.564 538.711 38.3913 538.711 38.186C538.711 37.9807 538.781 37.8127 538.921 37.682C539.061 37.542 539.229 37.472 539.425 37.472C539.621 37.472 539.789 37.542 539.929 37.682C540.069 37.8127 540.139 37.9807 540.139 38.186C540.139 38.3913 540.069 38.564 539.929 38.704C539.789 38.844 539.621 38.914 539.425 38.914ZM539.915 40.356V48H538.935V40.356H539.915ZM543.101 42.05C543.353 41.518 543.74 41.084 544.263 40.748C544.795 40.412 545.42 40.244 546.139 40.244C546.839 40.244 547.464 40.4073 548.015 40.734C548.565 41.0513 548.995 41.5087 549.303 42.106C549.62 42.694 549.779 43.38 549.779 44.164C549.779 44.948 549.62 45.6387 549.303 46.236C548.995 46.8333 548.561 47.2953 548.001 47.622C547.45 47.9487 546.829 48.112 546.139 48.112C545.411 48.112 544.781 47.9487 544.249 47.622C543.726 47.286 543.343 46.852 543.101 46.32V48H542.135V37.64H543.101V42.05ZM548.785 44.164C548.785 43.5293 548.659 42.9833 548.407 42.526C548.164 42.0593 547.828 41.7047 547.399 41.462C546.969 41.2193 546.484 41.098 545.943 41.098C545.42 41.098 544.939 41.224 544.501 41.476C544.071 41.728 543.731 42.0873 543.479 42.554C543.227 43.0207 543.101 43.562 543.101 44.178C543.101 44.794 543.227 45.3353 543.479 45.802C543.731 46.2687 544.071 46.628 544.501 46.88C544.939 47.132 545.42 47.258 545.943 47.258C546.484 47.258 546.969 47.1367 547.399 46.894C547.828 46.642 548.164 46.2827 548.407 45.816C548.659 45.34 548.785 44.7893 548.785 44.164ZM558.204 40.356V48H557.224V46.656C557 47.132 556.655 47.496 556.188 47.748C555.721 48 555.199 48.126 554.62 48.126C553.705 48.126 552.959 47.846 552.38 47.286C551.801 46.7167 551.512 45.8953 551.512 44.822V40.356H552.478V44.71C552.478 45.5407 552.683 46.1753 553.094 46.614C553.514 47.0527 554.083 47.272 554.802 47.272C555.539 47.272 556.127 47.0387 556.566 46.572C557.005 46.1053 557.224 45.4193 557.224 44.514V40.356H558.204ZM561.715 41.182V45.928C561.715 46.3947 561.804 46.7167 561.981 46.894C562.159 47.0713 562.471 47.16 562.919 47.16H563.815V48H562.765C562.075 48 561.561 47.8413 561.225 47.524C560.889 47.1973 560.721 46.6653 560.721 45.928V41.182H559.657V40.356H560.721V38.438H561.715V40.356H563.815V41.182H561.715ZM572.348 43.786C572.348 44.122 572.338 44.3787 572.32 44.556H565.978C566.006 45.1347 566.146 45.6293 566.398 46.04C566.65 46.4507 566.981 46.7633 567.392 46.978C567.802 47.1833 568.25 47.286 568.736 47.286C569.37 47.286 569.902 47.132 570.332 46.824C570.77 46.516 571.06 46.1007 571.2 45.578H572.236C572.049 46.3247 571.648 46.936 571.032 47.412C570.425 47.8787 569.66 48.112 568.736 48.112C568.017 48.112 567.373 47.9533 566.804 47.636C566.234 47.3093 565.786 46.852 565.46 46.264C565.142 45.6667 564.984 44.9713 564.984 44.178C564.984 43.3847 565.142 42.6893 565.46 42.092C565.777 41.4947 566.22 41.0373 566.79 40.72C567.359 40.4027 568.008 40.244 568.736 40.244C569.464 40.244 570.098 40.4027 570.64 40.72C571.19 41.0373 571.61 41.4667 571.9 42.008C572.198 42.54 572.348 43.1327 572.348 43.786ZM571.354 43.758C571.363 43.1887 571.246 42.7033 571.004 42.302C570.77 41.9007 570.448 41.5973 570.038 41.392C569.627 41.1867 569.179 41.084 568.694 41.084C567.966 41.084 567.345 41.3173 566.832 41.784C566.318 42.2507 566.034 42.9087 565.978 43.758H571.354ZM573.693 44.164C573.693 43.38 573.851 42.694 574.169 42.106C574.486 41.5087 574.92 41.0513 575.471 40.734C576.031 40.4073 576.661 40.244 577.361 40.244C578.033 40.244 578.639 40.4073 579.181 40.734C579.722 41.0607 580.119 41.4853 580.371 42.008V37.64H581.351V48H580.371V46.292C580.137 46.824 579.755 47.2627 579.223 47.608C578.691 47.944 578.065 48.112 577.347 48.112C576.647 48.112 576.017 47.9487 575.457 47.622C574.906 47.2953 574.472 46.8333 574.155 46.236C573.847 45.6387 573.693 44.948 573.693 44.164ZM580.371 44.178C580.371 43.562 580.245 43.0207 579.993 42.554C579.741 42.0873 579.395 41.728 578.957 41.476C578.527 41.224 578.051 41.098 577.529 41.098C576.987 41.098 576.502 41.2193 576.073 41.462C575.643 41.7047 575.303 42.0593 575.051 42.526C574.808 42.9833 574.687 43.5293 574.687 44.164C574.687 44.7893 574.808 45.34 575.051 45.816C575.303 46.2827 575.643 46.642 576.073 46.894C576.502 47.1367 576.987 47.258 577.529 47.258C578.051 47.258 578.527 47.132 578.957 46.88C579.395 46.628 579.741 46.2687 579.993 45.802C580.245 45.3353 580.371 44.794 580.371 44.178Z" fill="black"/>
<path d="M48.3744 38.34V48H47.3944V40.286L43.9504 48H43.2364L39.7924 40.314V48H38.8124V38.34H39.8484L43.5864 46.712L47.3244 38.34H48.3744ZM50.1495 44.164C50.1495 43.38 50.3035 42.694 50.6115 42.106C50.9289 41.5087 51.3629 41.0513 51.9135 40.734C52.4735 40.4073 53.1035 40.244 53.8035 40.244C54.5315 40.244 55.1569 40.412 55.6795 40.748C56.2115 41.084 56.5942 41.5133 56.8275 42.036V40.356H57.8075V48H56.8275V46.306C56.5849 46.8287 56.1975 47.2627 55.6655 47.608C55.1429 47.944 54.5175 48.112 53.7895 48.112C53.0989 48.112 52.4735 47.9487 51.9135 47.622C51.3629 47.2953 50.9289 46.8333 50.6115 46.236C50.3035 45.6387 50.1495 44.948 50.1495 44.164ZM56.8275 44.178C56.8275 43.562 56.7015 43.0207 56.4495 42.554C56.1975 42.0873 55.8522 41.728 55.4135 41.476C54.9842 41.224 54.5082 41.098 53.9855 41.098C53.4442 41.098 52.9589 41.2193 52.5295 41.462C52.1002 41.7047 51.7595 42.0593 51.5075 42.526C51.2649 42.9833 51.1435 43.5293 51.1435 44.164C51.1435 44.7893 51.2649 45.34 51.5075 45.816C51.7595 46.2827 52.1002 46.642 52.5295 46.894C52.9589 47.1367 53.4442 47.258 53.9855 47.258C54.5082 47.258 54.9842 47.132 55.4135 46.88C55.8522 46.628 56.1975 46.2687 56.4495 45.802C56.7015 45.3353 56.8275 44.794 56.8275 44.178ZM63.6288 40.216C64.5435 40.216 65.2901 40.5007 65.8688 41.07C66.4475 41.63 66.7368 42.4467 66.7368 43.52V48H65.7708V43.632C65.7708 42.8013 65.5608 42.1667 65.1408 41.728C64.7301 41.2893 64.1655 41.07 63.4468 41.07C62.7095 41.07 62.1215 41.3033 61.6828 41.77C61.2441 42.2367 61.0248 42.9227 61.0248 43.828V48H60.0448V40.356H61.0248V41.658C61.2675 41.1913 61.6175 40.8367 62.0748 40.594C62.5321 40.342 63.0501 40.216 63.6288 40.216ZM75.5262 40.356V48H74.5462V46.656C74.3222 47.132 73.9768 47.496 73.5102 47.748C73.0435 48 72.5208 48.126 71.9422 48.126C71.0275 48.126 70.2808 47.846 69.7022 47.286C69.1235 46.7167 68.8342 45.8953 68.8342 44.822V40.356H69.8002V44.71C69.8002 45.5407 70.0055 46.1753 70.4162 46.614C70.8362 47.0527 71.4055 47.272 72.1242 47.272C72.8615 47.272 73.4495 47.0387 73.8882 46.572C74.3268 46.1053 74.5462 45.4193 74.5462 44.514V40.356H75.5262ZM80.7736 41.182H78.9956V48H78.0156V41.182H76.9516V40.356H78.0156V39.824C78.0156 38.9933 78.2256 38.382 78.6456 37.99C79.0749 37.598 79.7656 37.402 80.7176 37.402V38.242C80.0829 38.242 79.6349 38.3633 79.3736 38.606C79.1216 38.8487 78.9956 39.2547 78.9956 39.824V40.356H80.7736V41.182ZM81.8683 44.164C81.8683 43.38 82.0223 42.694 82.3303 42.106C82.6476 41.5087 83.0816 41.0513 83.6323 40.734C84.1923 40.4073 84.8223 40.244 85.5223 40.244C86.2503 40.244 86.8756 40.412 87.3983 40.748C87.9303 41.084 88.313 41.5133 88.5463 42.036V40.356H89.5263V48H88.5463V46.306C88.3036 46.8287 87.9163 47.2627 87.3843 47.608C86.8616 47.944 86.2363 48.112 85.5083 48.112C84.8176 48.112 84.1923 47.9487 83.6323 47.622C83.0816 47.2953 82.6476 46.8333 82.3303 46.236C82.0223 45.6387 81.8683 44.948 81.8683 44.164ZM88.5463 44.178C88.5463 43.562 88.4203 43.0207 88.1683 42.554C87.9163 42.0873 87.571 41.728 87.1323 41.476C86.703 41.224 86.227 41.098 85.7043 41.098C85.163 41.098 84.6776 41.2193 84.2483 41.462C83.819 41.7047 83.4783 42.0593 83.2263 42.526C82.9836 42.9833 82.8623 43.5293 82.8623 44.164C82.8623 44.7893 82.9836 45.34 83.2263 45.816C83.4783 46.2827 83.819 46.642 84.2483 46.894C84.6776 47.1367 85.163 47.258 85.7043 47.258C86.227 47.258 86.703 47.132 87.1323 46.88C87.571 46.628 87.9163 46.2687 88.1683 45.802C88.4203 45.3353 88.5463 44.794 88.5463 44.178ZM91.3156 44.178C91.3156 43.3847 91.4742 42.694 91.7916 42.106C92.1089 41.5087 92.5476 41.0513 93.1076 40.734C93.6676 40.4073 94.3069 40.244 95.0256 40.244C95.9682 40.244 96.7429 40.4773 97.3496 40.944C97.9656 41.4107 98.3622 42.0453 98.5396 42.848H97.4896C97.3589 42.2973 97.0742 41.868 96.6356 41.56C96.2062 41.2427 95.6696 41.084 95.0256 41.084C94.5122 41.084 94.0502 41.2007 93.6396 41.434C93.2289 41.6673 92.9022 42.0173 92.6596 42.484C92.4262 42.9413 92.3096 43.506 92.3096 44.178C92.3096 44.85 92.4262 45.4193 92.6596 45.886C92.9022 46.3527 93.2289 46.7027 93.6396 46.936C94.0502 47.1693 94.5122 47.286 95.0256 47.286C95.6696 47.286 96.2062 47.132 96.6356 46.824C97.0742 46.5067 97.3589 46.068 97.4896 45.508H98.5396C98.3622 46.292 97.9656 46.922 97.3496 47.398C96.7336 47.874 95.9589 48.112 95.0256 48.112C94.3069 48.112 93.6676 47.9533 93.1076 47.636C92.5476 47.3093 92.1089 46.852 91.7916 46.264C91.4742 45.6667 91.3156 44.9713 91.3156 44.178ZM101.623 41.182V45.928C101.623 46.3947 101.712 46.7167 101.889 46.894C102.067 47.0713 102.379 47.16 102.827 47.16H103.723V48H102.673C101.983 48 101.469 47.8413 101.133 47.524C100.797 47.1973 100.629 46.6653 100.629 45.928V41.182H99.5655V40.356H100.629V38.438H101.623V40.356H103.723V41.182H101.623ZM111.962 40.356V48H110.982V46.656C110.758 47.132 110.412 47.496 109.946 47.748C109.479 48 108.956 48.126 108.378 48.126C107.463 48.126 106.716 47.846 106.138 47.286C105.559 46.7167 105.27 45.8953 105.27 44.822V40.356H106.236V44.71C106.236 45.5407 106.441 46.1753 106.852 46.614C107.272 47.0527 107.841 47.272 108.56 47.272C109.297 47.272 109.885 47.0387 110.324 46.572C110.762 46.1053 110.982 45.4193 110.982 44.514V40.356H111.962ZM115.179 41.714C115.394 41.238 115.72 40.8693 116.159 40.608C116.607 40.3467 117.153 40.216 117.797 40.216V41.238H117.531C116.822 41.238 116.252 41.4293 115.823 41.812C115.394 42.1947 115.179 42.834 115.179 43.73V48H114.199V40.356H115.179V41.714ZM126.187 43.786C126.187 44.122 126.178 44.3787 126.159 44.556H119.817C119.845 45.1347 119.985 45.6293 120.237 46.04C120.489 46.4507 120.821 46.7633 121.231 46.978C121.642 47.1833 122.09 47.286 122.575 47.286C123.21 47.286 123.742 47.132 124.171 46.824C124.61 46.516 124.899 46.1007 125.039 45.578H126.075C125.889 46.3247 125.487 46.936 124.871 47.412C124.265 47.8787 123.499 48.112 122.575 48.112C121.857 48.112 121.213 47.9533 120.643 47.636C120.074 47.3093 119.626 46.852 119.299 46.264C118.982 45.6667 118.823 44.9713 118.823 44.178C118.823 43.3847 118.982 42.6893 119.299 42.092C119.617 41.4947 120.06 41.0373 120.629 40.72C121.199 40.4027 121.847 40.244 122.575 40.244C123.303 40.244 123.938 40.4027 124.479 40.72C125.03 41.0373 125.45 41.4667 125.739 42.008C126.038 42.54 126.187 43.1327 126.187 43.786ZM125.193 43.758C125.203 43.1887 125.086 42.7033 124.843 42.302C124.61 41.9007 124.288 41.5973 123.877 41.392C123.467 41.1867 123.019 41.084 122.533 41.084C121.805 41.084 121.185 41.3173 120.671 41.784C120.158 42.2507 119.873 42.9087 119.817 43.758H125.193ZM127.532 44.164C127.532 43.38 127.691 42.694 128.008 42.106C128.326 41.5087 128.76 41.0513 129.31 40.734C129.87 40.4073 130.5 40.244 131.2 40.244C131.872 40.244 132.479 40.4073 133.02 40.734C133.562 41.0607 133.958 41.4853 134.21 42.008V37.64H135.19V48H134.21V46.292C133.977 46.824 133.594 47.2627 133.062 47.608C132.53 47.944 131.905 48.112 131.186 48.112C130.486 48.112 129.856 47.9487 129.296 47.622C128.746 47.2953 128.312 46.8333 127.994 46.236C127.686 45.6387 127.532 44.948 127.532 44.164ZM134.21 44.178C134.21 43.562 134.084 43.0207 133.832 42.554C133.58 42.0873 133.235 41.728 132.796 41.476C132.367 41.224 131.891 41.098 131.368 41.098C130.827 41.098 130.342 41.2193 129.912 41.462C129.483 41.7047 129.142 42.0593 128.89 42.526C128.648 42.9833 128.526 43.5293 128.526 44.164C128.526 44.7893 128.648 45.34 128.89 45.816C129.142 46.2827 129.483 46.642 129.912 46.894C130.342 47.1367 130.827 47.258 131.368 47.258C131.891 47.258 132.367 47.132 132.796 46.88C133.235 46.628 133.58 46.2687 133.832 45.802C134.084 45.3353 134.21 44.794 134.21 44.178Z" fill="black"/>
<line x1="98" y1="15.5" x2="532" y2="15.5" stroke="#CCCCCC"/>
<line x1="557" y1="15.5" x2="1023" y2="15.5" stroke="#CCCCCC"/>
<circle cx="544.5" cy="15.5" r="9" stroke="#D9D9D9"/>
<circle cx="544.5" cy="15.5" r="6.5" fill="black"/>
</svg>
