<svg width="11" height="11" viewBox="0 0 11 11" fill="none" xmlns="http://www.w3.org/2000/svg">
<g clip-path="url(#clip0_469_514)">
<path d="M4.12508 2.29199H3.20841C2.9653 2.29199 2.73214 2.38857 2.56023 2.56048C2.38833 2.73239 2.29175 2.96554 2.29175 3.20866V8.70866C2.29175 8.95177 2.38833 9.18493 2.56023 9.35684C2.73214 9.52875 2.9653 9.62533 3.20841 9.62533H7.79175C8.03486 9.62533 8.26802 9.52875 8.43993 9.35684C8.61184 9.18493 8.70841 8.95177 8.70841 8.70866V3.20866C8.70841 2.96554 8.61184 2.73239 8.43993 2.56048C8.26802 2.38857 8.03486 2.29199 7.79175 2.29199H6.87508" stroke="#292929" stroke-linecap="round" stroke-linejoin="round"/>
<path d="M5.95833 1.375H5.04167C4.53541 1.375 4.125 1.78541 4.125 2.29167C4.125 2.79793 4.53541 3.20833 5.04167 3.20833H5.95833C6.46459 3.20833 6.875 2.79793 6.875 2.29167C6.875 1.78541 6.46459 1.375 5.95833 1.375Z" stroke="#292929" stroke-linecap="round" stroke-linejoin="round"/>
</g>
<defs>
<clipPath id="clip0_469_514">
<rect width="11" height="11" fill="white"/>
</clipPath>
</defs>
</svg>
