<svg width="31" height="31" viewBox="0 0 31 31" fill="none" xmlns="http://www.w3.org/2000/svg">
<path d="M1 16.921V19.85C1 27.1 3.9 30 11.15 30H19.85C27.1 30 30 27.1 30 19.85V11.15C30 3.9 27.1 1 19.85 1H11.15C3.9 1 1 3.9 1 11.15" stroke="white" stroke-width="2" stroke-linecap="round" stroke-linejoin="round"/>
<path d="M16.3697 24.9251H21.8797C24.0547 24.9251 24.9247 24.0551 24.9247 21.8801V19.2701C24.9247 17.0951 24.0547 16.2251 21.8797 16.2251H16.3697C14.1947 16.2251 13.3247 17.0951 13.3247 19.2701V21.8801C13.3247 24.0551 14.1947 24.9251 16.3697 24.9251Z" stroke="white" stroke-width="2" stroke-linecap="round" stroke-linejoin="round"/>
</svg>
