<svg width="40" height="44" viewBox="0 0 40 44" fill="none" xmlns="http://www.w3.org/2000/svg">
<path d="M39.1294 12.1564V31.8437C39.1294 32.3053 38.8792 32.7304 38.4757 32.9548L20.682 42.84C20.2982 43.0533 19.8313 43.0533 19.4474 42.84L1.65377 32.9548C1.2503 32.7304 1.00004 32.3053 1.00004 31.8437L1 12.1564C1 11.6948 1.25026 11.2695 1.65375 11.0453L19.4474 1.15994C19.8313 0.946688 20.2982 0.946688 20.682 1.15994L38.4757 11.0453C38.879 11.2695 39.1294 11.6948 39.1294 12.1564Z" stroke="black" stroke-linecap="round" stroke-linejoin="round"/>
<path d="M2.11914 12.0305L19.4471 21.6573C19.831 21.8704 20.2979 21.8704 20.6817 21.6573L38.0699 11.9971" stroke="black" stroke-linecap="round" stroke-linejoin="round"/>
<path d="M20.0647 41.0656V22.001" stroke="black" stroke-linecap="round" stroke-linejoin="round"/>
</svg>
