<svg width="29" height="30" viewBox="0 0 29 30" fill="none" xmlns="http://www.w3.org/2000/svg">
<path d="M25.293 6.07033H17.1992C16.6461 6.07033 16.1875 5.61168 16.1875 5.0586C16.1875 4.50552 16.6461 4.04688 17.1992 4.04688H25.293C25.8461 4.04688 26.3048 4.50552 26.3048 5.0586C26.3048 5.61168 25.8461 6.07033 25.293 6.07033Z" fill="#292D32"/>
<path d="M21.2461 10.1172H17.1992C16.6461 10.1172 16.1875 9.65855 16.1875 9.10548C16.1875 8.5524 16.6461 8.09375 17.1992 8.09375H21.2461C21.7992 8.09375 22.2579 8.5524 22.2579 9.10548C22.2579 9.65855 21.7992 10.1172 21.2461 10.1172Z" fill="#292D32"/>
<path d="M13.8269 27.6539C6.20526 27.6539 0 21.4486 0 13.8269C0 6.20526 6.20526 0 13.8269 0C14.38 0 14.8387 0.458649 14.8387 1.01173C14.8387 1.5648 14.38 2.02345 13.8269 2.02345C7.31141 2.02345 2.02345 7.3249 2.02345 13.8269C2.02345 20.329 7.31141 25.6304 13.8269 25.6304C20.3425 25.6304 25.6304 20.329 25.6304 13.8269C25.6304 13.2739 26.0891 12.8152 26.6421 12.8152C27.1952 12.8152 27.6539 13.2739 27.6539 13.8269C27.6539 21.4486 21.4486 27.6539 13.8269 27.6539Z" fill="#292D32"/>
<path d="M27.9919 29.0027C27.7356 29.0027 27.4793 28.9083 27.277 28.7059L24.579 26.008C24.1878 25.6168 24.1878 24.9693 24.579 24.5781C24.9702 24.1869 25.6178 24.1869 26.009 24.5781L28.7069 27.276C29.0981 27.6672 29.0981 28.3147 28.7069 28.7059C28.5045 28.9083 28.2482 29.0027 27.9919 29.0027Z" fill="#292D32"/>
</svg>
