<svg width="1138" height="91" viewBox="0 0 1138 91" fill="none" xmlns="http://www.w3.org/2000/svg">
<path d="M1022.73 38.214C1023.81 38.214 1024.74 38.41 1025.51 38.802C1026.29 39.194 1026.88 39.7587 1027.29 40.496C1027.7 41.2333 1027.91 42.1107 1027.91 43.128C1027.91 44.136 1027.7 45.0087 1027.29 45.746C1026.88 46.474 1026.29 47.034 1025.51 47.426C1024.74 47.8087 1023.81 48 1022.73 48H1019.83V38.214H1022.73ZM1022.73 47.188C1024.09 47.188 1025.12 46.8333 1025.83 46.124C1026.55 45.4053 1026.91 44.4067 1026.91 43.128C1026.91 41.84 1026.55 40.8367 1025.83 40.118C1025.12 39.39 1024.09 39.026 1022.73 39.026H1020.81V47.188H1022.73ZM1036.63 43.786C1036.63 44.122 1036.62 44.3787 1036.6 44.556H1030.26C1030.29 45.1347 1030.43 45.6293 1030.68 46.04C1030.93 46.4507 1031.26 46.7633 1031.67 46.978C1032.08 47.1833 1032.53 47.286 1033.02 47.286C1033.65 47.286 1034.18 47.132 1034.61 46.824C1035.05 46.516 1035.34 46.1007 1035.48 45.578H1036.52C1036.33 46.3247 1035.93 46.936 1035.31 47.412C1034.71 47.8787 1033.94 48.112 1033.02 48.112C1032.3 48.112 1031.65 47.9533 1031.08 47.636C1030.51 47.3093 1030.07 46.852 1029.74 46.264C1029.42 45.6667 1029.26 44.9713 1029.26 44.178C1029.26 43.3847 1029.42 42.6893 1029.74 42.092C1030.06 41.4947 1030.5 41.0373 1031.07 40.72C1031.64 40.4027 1032.29 40.244 1033.02 40.244C1033.74 40.244 1034.38 40.4027 1034.92 40.72C1035.47 41.0373 1035.89 41.4667 1036.18 42.008C1036.48 42.54 1036.63 43.1327 1036.63 43.786ZM1035.63 43.758C1035.64 43.1887 1035.53 42.7033 1035.28 42.302C1035.05 41.9007 1034.73 41.5973 1034.32 41.392C1033.91 41.1867 1033.46 41.084 1032.97 41.084C1032.25 41.084 1031.63 41.3173 1031.11 41.784C1030.6 42.2507 1030.31 42.9087 1030.26 43.758H1035.63ZM1039.4 37.64V48H1038.42V37.64H1039.4ZM1042.11 38.914C1041.91 38.914 1041.75 38.844 1041.61 38.704C1041.47 38.564 1041.4 38.3913 1041.4 38.186C1041.4 37.9807 1041.47 37.8127 1041.61 37.682C1041.75 37.542 1041.91 37.472 1042.11 37.472C1042.31 37.472 1042.47 37.542 1042.61 37.682C1042.75 37.8127 1042.82 37.9807 1042.82 38.186C1042.82 38.3913 1042.75 38.564 1042.61 38.704C1042.47 38.844 1042.31 38.914 1042.11 38.914ZM1042.6 40.356V48H1041.62V40.356H1042.6ZM1047.54 47.048L1050.11 40.356H1051.15L1048.08 48H1046.98L1043.91 40.356H1044.96L1047.54 47.048ZM1059.39 43.786C1059.39 44.122 1059.38 44.3787 1059.36 44.556H1053.02C1053.05 45.1347 1053.19 45.6293 1053.44 46.04C1053.69 46.4507 1054.02 46.7633 1054.44 46.978C1054.85 47.1833 1055.29 47.286 1055.78 47.286C1056.41 47.286 1056.95 47.132 1057.38 46.824C1057.81 46.516 1058.1 46.1007 1058.24 45.578H1059.28C1059.09 46.3247 1058.69 46.936 1058.08 47.412C1057.47 47.8787 1056.7 48.112 1055.78 48.112C1055.06 48.112 1054.42 47.9533 1053.85 47.636C1053.28 47.3093 1052.83 46.852 1052.5 46.264C1052.19 45.6667 1052.03 44.9713 1052.03 44.178C1052.03 43.3847 1052.19 42.6893 1052.5 42.092C1052.82 41.4947 1053.26 41.0373 1053.83 40.72C1054.4 40.4027 1055.05 40.244 1055.78 40.244C1056.51 40.244 1057.14 40.4027 1057.68 40.72C1058.23 41.0373 1058.65 41.4667 1058.94 42.008C1059.24 42.54 1059.39 43.1327 1059.39 43.786ZM1058.4 43.758C1058.41 43.1887 1058.29 42.7033 1058.05 42.302C1057.81 41.9007 1057.49 41.5973 1057.08 41.392C1056.67 41.1867 1056.22 41.084 1055.74 41.084C1055.01 41.084 1054.39 41.3173 1053.88 41.784C1053.36 42.2507 1053.08 42.9087 1053.02 43.758H1058.4ZM1062.16 41.714C1062.38 41.238 1062.71 40.8693 1063.14 40.608C1063.59 40.3467 1064.14 40.216 1064.78 40.216V41.238H1064.52C1063.81 41.238 1063.24 41.4293 1062.81 41.812C1062.38 42.1947 1062.16 42.834 1062.16 43.73V48H1061.18V40.356H1062.16V41.714ZM1073.17 43.786C1073.17 44.122 1073.16 44.3787 1073.14 44.556H1066.8C1066.83 45.1347 1066.97 45.6293 1067.22 46.04C1067.47 46.4507 1067.81 46.7633 1068.22 46.978C1068.63 47.1833 1069.08 47.286 1069.56 47.286C1070.2 47.286 1070.73 47.132 1071.16 46.824C1071.6 46.516 1071.88 46.1007 1072.02 45.578H1073.06C1072.87 46.3247 1072.47 46.936 1071.86 47.412C1071.25 47.8787 1070.48 48.112 1069.56 48.112C1068.84 48.112 1068.2 47.9533 1067.63 47.636C1067.06 47.3093 1066.61 46.852 1066.28 46.264C1065.97 45.6667 1065.81 44.9713 1065.81 44.178C1065.81 43.3847 1065.97 42.6893 1066.28 42.092C1066.6 41.4947 1067.05 41.0373 1067.61 40.72C1068.18 40.4027 1068.83 40.244 1069.56 40.244C1070.29 40.244 1070.92 40.4027 1071.46 40.72C1072.02 41.0373 1072.44 41.4667 1072.72 42.008C1073.02 42.54 1073.17 43.1327 1073.17 43.786ZM1072.18 43.758C1072.19 43.1887 1072.07 42.7033 1071.83 42.302C1071.6 41.9007 1071.27 41.5973 1070.86 41.392C1070.45 41.1867 1070 41.084 1069.52 41.084C1068.79 41.084 1068.17 41.3173 1067.66 41.784C1067.14 42.2507 1066.86 42.9087 1066.8 43.758H1072.18ZM1074.52 44.164C1074.52 43.38 1074.68 42.694 1074.99 42.106C1075.31 41.5087 1075.75 41.0513 1076.3 40.734C1076.86 40.4073 1077.49 40.244 1078.19 40.244C1078.86 40.244 1079.46 40.4073 1080.01 40.734C1080.55 41.0607 1080.94 41.4853 1081.2 42.008V37.64H1082.18V48H1081.2V46.292C1080.96 46.824 1080.58 47.2627 1080.05 47.608C1079.52 47.944 1078.89 48.112 1078.17 48.112C1077.47 48.112 1076.84 47.9487 1076.28 47.622C1075.73 47.2953 1075.3 46.8333 1074.98 46.236C1074.67 45.6387 1074.52 44.948 1074.52 44.164ZM1081.2 44.178C1081.2 43.562 1081.07 43.0207 1080.82 42.554C1080.57 42.0873 1080.22 41.728 1079.78 41.476C1079.35 41.224 1078.88 41.098 1078.35 41.098C1077.81 41.098 1077.33 41.2193 1076.9 41.462C1076.47 41.7047 1076.13 42.0593 1075.88 42.526C1075.63 42.9833 1075.51 43.5293 1075.51 44.164C1075.51 44.7893 1075.63 45.34 1075.88 45.816C1076.13 46.2827 1076.47 46.642 1076.9 46.894C1077.33 47.1367 1077.81 47.258 1078.35 47.258C1078.88 47.258 1079.35 47.132 1079.78 46.88C1080.22 46.628 1080.57 46.2687 1080.82 45.802C1081.07 45.3353 1081.2 44.794 1081.2 44.178Z" fill="black"/>
<path d="M528.55 38.214C529.633 38.214 530.562 38.41 531.336 38.802C532.111 39.194 532.704 39.7587 533.114 40.496C533.525 41.2333 533.73 42.1107 533.73 43.128C533.73 44.136 533.525 45.0087 533.114 45.746C532.704 46.474 532.111 47.034 531.336 47.426C530.562 47.8087 529.633 48 528.55 48H525.652V38.214H528.55ZM528.55 47.188C529.913 47.188 530.949 46.8333 531.658 46.124C532.377 45.4053 532.736 44.4067 532.736 43.128C532.736 41.84 532.377 40.8367 531.658 40.118C530.949 39.39 529.913 39.026 528.55 39.026H526.632V47.188H528.55ZM536.027 38.914C535.831 38.914 535.663 38.844 535.523 38.704C535.383 38.564 535.313 38.3913 535.313 38.186C535.313 37.9807 535.383 37.8127 535.523 37.682C535.663 37.542 535.831 37.472 536.027 37.472C536.223 37.472 536.391 37.542 536.531 37.682C536.671 37.8127 536.741 37.9807 536.741 38.186C536.741 38.3913 536.671 38.564 536.531 38.704C536.391 38.844 536.223 38.914 536.027 38.914ZM536.517 40.356V48H535.537V40.356H536.517ZM541.368 48.112C540.491 48.112 539.772 47.9113 539.212 47.51C538.662 47.0993 538.354 46.544 538.288 45.844H539.296C539.343 46.2733 539.544 46.6233 539.898 46.894C540.262 47.1553 540.748 47.286 541.354 47.286C541.886 47.286 542.302 47.16 542.6 46.908C542.908 46.656 543.062 46.3433 543.062 45.97C543.062 45.7087 542.978 45.494 542.81 45.326C542.642 45.158 542.428 45.0273 542.166 44.934C541.914 44.8313 541.569 44.724 541.13 44.612C540.561 44.4627 540.099 44.3133 539.744 44.164C539.39 44.0147 539.086 43.7953 538.834 43.506C538.592 43.2073 538.47 42.8107 538.47 42.316C538.47 41.9427 538.582 41.5973 538.806 41.28C539.03 40.9627 539.348 40.7107 539.758 40.524C540.169 40.3373 540.636 40.244 541.158 40.244C541.98 40.244 542.642 40.454 543.146 40.874C543.65 41.2847 543.921 41.854 543.958 42.582H542.978C542.95 42.134 542.773 41.7747 542.446 41.504C542.129 41.224 541.69 41.084 541.13 41.084C540.636 41.084 540.234 41.2007 539.926 41.434C539.618 41.6673 539.464 41.9567 539.464 42.302C539.464 42.6007 539.553 42.848 539.73 43.044C539.917 43.2307 540.146 43.38 540.416 43.492C540.687 43.5947 541.051 43.7113 541.508 43.842C542.059 43.9913 542.498 44.136 542.824 44.276C543.151 44.416 543.431 44.6213 543.664 44.892C543.898 45.1627 544.019 45.522 544.028 45.97C544.028 46.3807 543.916 46.7493 543.692 47.076C543.468 47.3933 543.156 47.6453 542.754 47.832C542.353 48.0187 541.891 48.112 541.368 48.112ZM547.147 41.182V45.928C547.147 46.3947 547.236 46.7167 547.413 46.894C547.59 47.0713 547.903 47.16 548.351 47.16H549.247V48H548.197C547.506 48 546.993 47.8413 546.657 47.524C546.321 47.1973 546.153 46.6653 546.153 45.928V41.182H545.089V40.356H546.153V38.438H547.147V40.356H549.247V41.182H547.147ZM551.843 41.714C552.058 41.238 552.384 40.8693 552.823 40.608C553.271 40.3467 553.817 40.216 554.461 40.216V41.238H554.195C553.486 41.238 552.916 41.4293 552.487 41.812C552.058 42.1947 551.843 42.834 551.843 43.73V48H550.863V40.356H551.843V41.714ZM556.425 38.914C556.229 38.914 556.061 38.844 555.921 38.704C555.781 38.564 555.711 38.3913 555.711 38.186C555.711 37.9807 555.781 37.8127 555.921 37.682C556.061 37.542 556.229 37.472 556.425 37.472C556.621 37.472 556.789 37.542 556.929 37.682C557.069 37.8127 557.139 37.9807 557.139 38.186C557.139 38.3913 557.069 38.564 556.929 38.704C556.789 38.844 556.621 38.914 556.425 38.914ZM556.915 40.356V48H555.935V40.356H556.915ZM560.101 42.05C560.353 41.518 560.74 41.084 561.263 40.748C561.795 40.412 562.42 40.244 563.139 40.244C563.839 40.244 564.464 40.4073 565.015 40.734C565.565 41.0513 565.995 41.5087 566.303 42.106C566.62 42.694 566.779 43.38 566.779 44.164C566.779 44.948 566.62 45.6387 566.303 46.236C565.995 46.8333 565.561 47.2953 565.001 47.622C564.45 47.9487 563.829 48.112 563.139 48.112C562.411 48.112 561.781 47.9487 561.249 47.622C560.726 47.286 560.343 46.852 560.101 46.32V48H559.135V37.64H560.101V42.05ZM565.785 44.164C565.785 43.5293 565.659 42.9833 565.407 42.526C565.164 42.0593 564.828 41.7047 564.399 41.462C563.969 41.2193 563.484 41.098 562.943 41.098C562.42 41.098 561.939 41.224 561.501 41.476C561.071 41.728 560.731 42.0873 560.479 42.554C560.227 43.0207 560.101 43.562 560.101 44.178C560.101 44.794 560.227 45.3353 560.479 45.802C560.731 46.2687 561.071 46.628 561.501 46.88C561.939 47.132 562.42 47.258 562.943 47.258C563.484 47.258 563.969 47.1367 564.399 46.894C564.828 46.642 565.164 46.2827 565.407 45.816C565.659 45.34 565.785 44.7893 565.785 44.164ZM575.204 40.356V48H574.224V46.656C574 47.132 573.655 47.496 573.188 47.748C572.721 48 572.199 48.126 571.62 48.126C570.705 48.126 569.959 47.846 569.38 47.286C568.801 46.7167 568.512 45.8953 568.512 44.822V40.356H569.478V44.71C569.478 45.5407 569.683 46.1753 570.094 46.614C570.514 47.0527 571.083 47.272 571.802 47.272C572.539 47.272 573.127 47.0387 573.566 46.572C574.005 46.1053 574.224 45.4193 574.224 44.514V40.356H575.204ZM578.715 41.182V45.928C578.715 46.3947 578.804 46.7167 578.981 46.894C579.159 47.0713 579.471 47.16 579.919 47.16H580.815V48H579.765C579.075 48 578.561 47.8413 578.225 47.524C577.889 47.1973 577.721 46.6653 577.721 45.928V41.182H576.657V40.356H577.721V38.438H578.715V40.356H580.815V41.182H578.715ZM589.348 43.786C589.348 44.122 589.338 44.3787 589.32 44.556H582.978C583.006 45.1347 583.146 45.6293 583.398 46.04C583.65 46.4507 583.981 46.7633 584.392 46.978C584.802 47.1833 585.25 47.286 585.736 47.286C586.37 47.286 586.902 47.132 587.332 46.824C587.77 46.516 588.06 46.1007 588.2 45.578H589.236C589.049 46.3247 588.648 46.936 588.032 47.412C587.425 47.8787 586.66 48.112 585.736 48.112C585.017 48.112 584.373 47.9533 583.804 47.636C583.234 47.3093 582.786 46.852 582.46 46.264C582.142 45.6667 581.984 44.9713 581.984 44.178C581.984 43.3847 582.142 42.6893 582.46 42.092C582.777 41.4947 583.22 41.0373 583.79 40.72C584.359 40.4027 585.008 40.244 585.736 40.244C586.464 40.244 587.098 40.4027 587.64 40.72C588.19 41.0373 588.61 41.4667 588.9 42.008C589.198 42.54 589.348 43.1327 589.348 43.786ZM588.354 43.758C588.363 43.1887 588.246 42.7033 588.004 42.302C587.77 41.9007 587.448 41.5973 587.038 41.392C586.627 41.1867 586.179 41.084 585.694 41.084C584.966 41.084 584.345 41.3173 583.832 41.784C583.318 42.2507 583.034 42.9087 582.978 43.758H588.354ZM590.693 44.164C590.693 43.38 590.851 42.694 591.169 42.106C591.486 41.5087 591.92 41.0513 592.471 40.734C593.031 40.4073 593.661 40.244 594.361 40.244C595.033 40.244 595.639 40.4073 596.181 40.734C596.722 41.0607 597.119 41.4853 597.371 42.008V37.64H598.351V48H597.371V46.292C597.137 46.824 596.755 47.2627 596.223 47.608C595.691 47.944 595.065 48.112 594.347 48.112C593.647 48.112 593.017 47.9487 592.457 47.622C591.906 47.2953 591.472 46.8333 591.155 46.236C590.847 45.6387 590.693 44.948 590.693 44.164ZM597.371 44.178C597.371 43.562 597.245 43.0207 596.993 42.554C596.741 42.0873 596.395 41.728 595.957 41.476C595.527 41.224 595.051 41.098 594.529 41.098C593.987 41.098 593.502 41.2193 593.073 41.462C592.643 41.7047 592.303 42.0593 592.051 42.526C591.808 42.9833 591.687 43.5293 591.687 44.164C591.687 44.7893 591.808 45.34 592.051 45.816C592.303 46.2827 592.643 46.642 593.073 46.894C593.502 47.1367 593.987 47.258 594.529 47.258C595.051 47.258 595.527 47.132 595.957 46.88C596.395 46.628 596.741 46.2687 596.993 45.802C597.245 45.3353 597.371 44.794 597.371 44.178Z" fill="black"/>
<path d="M78.111 85.105C77.421 85.105 76.811 84.985 76.281 84.745C75.761 84.505 75.351 84.17 75.051 83.74C74.751 83.31 74.591 82.83 74.571 82.3H75.681C75.731 82.81 75.956 83.26 76.356 83.65C76.756 84.03 77.341 84.22 78.111 84.22C78.821 84.22 79.381 84.04 79.791 83.68C80.211 83.31 80.421 82.845 80.421 82.285C80.421 81.835 80.306 81.475 80.076 81.205C79.846 80.925 79.561 80.72 79.221 80.59C78.881 80.45 78.411 80.3 77.811 80.14C77.111 79.95 76.556 79.765 76.146 79.585C75.736 79.405 75.386 79.125 75.096 78.745C74.806 78.365 74.661 77.85 74.661 77.2C74.661 76.66 74.801 76.18 75.081 75.76C75.361 75.33 75.756 74.995 76.266 74.755C76.776 74.515 77.361 74.395 78.021 74.395C78.991 74.395 79.771 74.635 80.361 75.115C80.961 75.585 81.306 76.195 81.396 76.945H80.256C80.186 76.515 79.951 76.135 79.551 75.805C79.151 75.465 78.611 75.295 77.931 75.295C77.301 75.295 76.776 75.465 76.356 75.805C75.936 76.135 75.726 76.59 75.726 77.17C75.726 77.61 75.841 77.965 76.071 78.235C76.301 78.505 76.586 78.71 76.926 78.85C77.276 78.99 77.746 79.14 78.336 79.3C79.016 79.49 79.566 79.68 79.986 79.87C80.406 80.05 80.761 80.33 81.051 80.71C81.341 81.09 81.486 81.6 81.486 82.24C81.486 82.73 81.356 83.195 81.096 83.635C80.836 84.075 80.451 84.43 79.941 84.7C79.431 84.97 78.821 85.105 78.111 85.105ZM84.8799 77.695V82.78C84.8799 83.28 84.9749 83.625 85.1649 83.815C85.3549 84.005 85.6899 84.1 86.1699 84.1H87.1299V85H86.0049C85.2649 85 84.7149 84.83 84.3549 84.49C83.9949 84.14 83.8149 83.57 83.8149 82.78V77.695H82.6749V76.81H83.8149V74.755H84.8799V76.81H87.1299V77.695H84.8799ZM88.3816 80.89C88.3816 80.05 88.5466 79.315 88.8766 78.685C89.2166 78.045 89.6816 77.555 90.2716 77.215C90.8716 76.865 91.5466 76.69 92.2966 76.69C93.0766 76.69 93.7466 76.87 94.3066 77.23C94.8766 77.59 95.2866 78.05 95.5366 78.61V76.81H96.5866V85H95.5366V83.185C95.2766 83.745 94.8616 84.21 94.2916 84.58C93.7316 84.94 93.0616 85.12 92.2816 85.12C91.5416 85.12 90.8716 84.945 90.2716 84.595C89.6816 84.245 89.2166 83.75 88.8766 83.11C88.5466 82.47 88.3816 81.73 88.3816 80.89ZM95.5366 80.905C95.5366 80.245 95.4016 79.665 95.1316 79.165C94.8616 78.665 94.4916 78.28 94.0216 78.01C93.5616 77.74 93.0516 77.605 92.4916 77.605C91.9116 77.605 91.3916 77.735 90.9316 77.995C90.4716 78.255 90.1066 78.635 89.8366 79.135C89.5766 79.625 89.4466 80.21 89.4466 80.89C89.4466 81.56 89.5766 82.15 89.8366 82.66C90.1066 83.16 90.4716 83.545 90.9316 83.815C91.3916 84.075 91.9116 84.205 92.4916 84.205C93.0516 84.205 93.5616 84.07 94.0216 83.8C94.4916 83.53 94.8616 83.145 95.1316 82.645C95.4016 82.145 95.5366 81.565 95.5366 80.905ZM100.349 77.695V82.78C100.349 83.28 100.444 83.625 100.634 83.815C100.824 84.005 101.159 84.1 101.639 84.1H102.599V85H101.474C100.734 85 100.184 84.83 99.8237 84.49C99.4637 84.14 99.2837 83.57 99.2837 82.78V77.695H98.1437V76.81H99.2837V74.755H100.349V76.81H102.599V77.695H100.349ZM111.425 76.81V85H110.375V83.56C110.135 84.07 109.765 84.46 109.265 84.73C108.765 85 108.205 85.135 107.585 85.135C106.605 85.135 105.805 84.835 105.185 84.235C104.565 83.625 104.255 82.745 104.255 81.595V76.81H105.29V81.475C105.29 82.365 105.51 83.045 105.95 83.515C106.4 83.985 107.01 84.22 107.78 84.22C108.57 84.22 109.2 83.97 109.67 83.47C110.14 82.97 110.375 82.235 110.375 81.265V76.81H111.425ZM116.643 85.12C115.703 85.12 114.933 84.905 114.333 84.475C113.743 84.035 113.413 83.44 113.343 82.69H114.423C114.473 83.15 114.688 83.525 115.068 83.815C115.458 84.095 115.978 84.235 116.628 84.235C117.198 84.235 117.643 84.1 117.963 83.83C118.293 83.56 118.458 83.225 118.458 82.825C118.458 82.545 118.368 82.315 118.188 82.135C118.008 81.955 117.778 81.815 117.498 81.715C117.228 81.605 116.858 81.49 116.388 81.37C115.778 81.21 115.283 81.05 114.903 80.89C114.523 80.73 114.198 80.495 113.928 80.185C113.668 79.865 113.538 79.44 113.538 78.91C113.538 78.51 113.658 78.14 113.898 77.8C114.138 77.46 114.478 77.19 114.918 76.99C115.358 76.79 115.858 76.69 116.418 76.69C117.298 76.69 118.008 76.915 118.548 77.365C119.088 77.805 119.378 78.415 119.418 79.195H118.368C118.338 78.715 118.148 78.33 117.798 78.04C117.458 77.74 116.988 77.59 116.388 77.59C115.858 77.59 115.428 77.715 115.098 77.965C114.768 78.215 114.603 78.525 114.603 78.895C114.603 79.215 114.698 79.48 114.888 79.69C115.088 79.89 115.333 80.05 115.623 80.17C115.913 80.28 116.303 80.405 116.793 80.545C117.383 80.705 117.853 80.86 118.203 81.01C118.553 81.16 118.853 81.38 119.103 81.67C119.353 81.96 119.483 82.345 119.493 82.825C119.493 83.265 119.373 83.66 119.133 84.01C118.893 84.35 118.558 84.62 118.128 84.82C117.698 85.02 117.203 85.12 116.643 85.12Z" fill="black"/>
<path d="M25.53 45.45V63H21.255V52.475L17.33 63H13.88L9.92998 52.45V63H5.65498V45.45H10.705L15.63 57.6L20.505 45.45H25.53ZM27.7542 56C27.7542 54.5667 28.0209 53.3083 28.5542 52.225C29.1042 51.1417 29.8459 50.3083 30.7792 49.725C31.7125 49.1417 32.7542 48.85 33.9042 48.85C34.8875 48.85 35.7459 49.05 36.4792 49.45C37.2292 49.85 37.8042 50.375 38.2042 51.025V49.05H42.4792V63H38.2042V61.025C37.7875 61.675 37.2042 62.2 36.4542 62.6C35.7209 63 34.8625 63.2 33.8792 63.2C32.7459 63.2 31.7125 62.9083 30.7792 62.325C29.8459 61.725 29.1042 60.8833 28.5542 59.8C28.0209 58.7 27.7542 57.4333 27.7542 56ZM38.2042 56.025C38.2042 54.9583 37.9042 54.1167 37.3042 53.5C36.7209 52.8833 36.0042 52.575 35.1542 52.575C34.3042 52.575 33.5792 52.8833 32.9792 53.5C32.3959 54.1 32.1042 54.9333 32.1042 56C32.1042 57.0667 32.3959 57.9167 32.9792 58.55C33.5792 59.1667 34.3042 59.475 35.1542 59.475C36.0042 59.475 36.7209 59.1667 37.3042 58.55C37.9042 57.9333 38.2042 57.0917 38.2042 56.025ZM54.072 48.9C55.7053 48.9 57.0053 49.4333 57.972 50.5C58.9553 51.55 59.447 53 59.447 54.85V63H55.197V55.425C55.197 54.4917 54.9553 53.7667 54.472 53.25C53.9886 52.7333 53.3386 52.475 52.522 52.475C51.7053 52.475 51.0553 52.7333 50.572 53.25C50.0886 53.7667 49.847 54.4917 49.847 55.425V63H45.572V49.05H49.847V50.9C50.2803 50.2833 50.8636 49.8 51.597 49.45C52.3303 49.0833 53.1553 48.9 54.072 48.9ZM76.1927 49.05V63H71.9177V61.1C71.4843 61.7167 70.8927 62.2167 70.1427 62.6C69.4093 62.9667 68.5927 63.15 67.6927 63.15C66.626 63.15 65.6843 62.9167 64.8677 62.45C64.051 61.9667 63.4177 61.275 62.9677 60.375C62.5177 59.475 62.2927 58.4167 62.2927 57.2V49.05H66.5427V56.625C66.5427 57.5583 66.7843 58.2833 67.2677 58.8C67.751 59.3167 68.401 59.575 69.2177 59.575C70.051 59.575 70.7093 59.3167 71.1927 58.8C71.676 58.2833 71.9177 57.5583 71.9177 56.625V49.05H76.1927ZM86.2634 52.6H83.9634V63H79.6884V52.6H78.1384V49.05H79.6884V48.65C79.6884 46.9333 80.18 45.6333 81.1634 44.75C82.1467 43.85 83.5884 43.4 85.4884 43.4C85.805 43.4 86.0384 43.4083 86.1884 43.425V47.05C85.3717 47 84.7967 47.1167 84.4634 47.4C84.13 47.6833 83.9634 48.1917 83.9634 48.925V49.05H86.2634V52.6ZM87.4222 56C87.4222 54.5667 87.6888 53.3083 88.2222 52.225C88.7722 51.1417 89.5138 50.3083 90.4472 49.725C91.3805 49.1417 92.4222 48.85 93.5722 48.85C94.5555 48.85 95.4138 49.05 96.1472 49.45C96.8972 49.85 97.4722 50.375 97.8722 51.025V49.05H102.147V63H97.8722V61.025C97.4555 61.675 96.8722 62.2 96.1222 62.6C95.3888 63 94.5305 63.2 93.5472 63.2C92.4138 63.2 91.3805 62.9083 90.4472 62.325C89.5138 61.725 88.7722 60.8833 88.2222 59.8C87.6888 58.7 87.4222 57.4333 87.4222 56ZM97.8722 56.025C97.8722 54.9583 97.5722 54.1167 96.9722 53.5C96.3888 52.8833 95.6722 52.575 94.8222 52.575C93.9722 52.575 93.2472 52.8833 92.6472 53.5C92.0638 54.1 91.7722 54.9333 91.7722 56C91.7722 57.0667 92.0638 57.9167 92.6472 58.55C93.2472 59.1667 93.9722 59.475 94.8222 59.475C95.6722 59.475 96.3888 59.1667 96.9722 58.55C97.5722 57.9333 97.8722 57.0917 97.8722 56.025ZM104.39 56.025C104.39 54.575 104.682 53.3083 105.265 52.225C105.865 51.1417 106.69 50.3083 107.74 49.725C108.807 49.1417 110.023 48.85 111.39 48.85C113.14 48.85 114.598 49.3083 115.765 50.225C116.948 51.1417 117.723 52.4333 118.09 54.1H113.54C113.157 53.0333 112.415 52.5 111.315 52.5C110.532 52.5 109.907 52.8083 109.44 53.425C108.973 54.025 108.74 54.8917 108.74 56.025C108.74 57.1583 108.973 58.0333 109.44 58.65C109.907 59.25 110.532 59.55 111.315 59.55C112.415 59.55 113.157 59.0167 113.54 57.95H118.09C117.723 59.5833 116.948 60.8667 115.765 61.8C114.582 62.7333 113.123 63.2 111.39 63.2C110.023 63.2 108.807 62.9083 107.74 62.325C106.69 61.7417 105.865 60.9083 105.265 59.825C104.682 58.7417 104.39 57.475 104.39 56.025ZM128.152 59.375V63H125.977C124.427 63 123.218 62.625 122.352 61.875C121.485 61.1083 121.052 59.8667 121.052 58.15V52.6H119.352V49.05H121.052V45.65H125.327V49.05H128.127V52.6H125.327V58.2C125.327 58.6167 125.427 58.9167 125.627 59.1C125.827 59.2833 126.16 59.375 126.627 59.375H128.152ZM144.308 49.05V63H140.033V61.1C139.6 61.7167 139.008 62.2167 138.258 62.6C137.525 62.9667 136.708 63.15 135.808 63.15C134.741 63.15 133.8 62.9167 132.983 62.45C132.166 61.9667 131.533 61.275 131.083 60.375C130.633 59.475 130.408 58.4167 130.408 57.2V49.05H134.658V56.625C134.658 57.5583 134.9 58.2833 135.383 58.8C135.866 59.3167 136.516 59.575 137.333 59.575C138.166 59.575 138.825 59.3167 139.308 58.8C139.791 58.2833 140.033 57.5583 140.033 56.625V49.05H144.308ZM151.654 51.375C152.154 50.6083 152.779 50.0083 153.529 49.575C154.279 49.125 155.112 48.9 156.029 48.9V53.425H154.854C153.787 53.425 152.987 53.6583 152.454 54.125C151.92 54.575 151.654 55.375 151.654 56.525V63H147.379V49.05H151.654V51.375ZM171.222 55.8C171.222 56.2 171.197 56.6167 171.147 57.05H161.472C161.539 57.9167 161.814 58.5833 162.297 59.05C162.797 59.5 163.405 59.725 164.122 59.725C165.189 59.725 165.93 59.275 166.347 58.375H170.897C170.664 59.2917 170.239 60.1167 169.622 60.85C169.022 61.5833 168.264 62.1583 167.347 62.575C166.43 62.9917 165.405 63.2 164.272 63.2C162.905 63.2 161.689 62.9083 160.622 62.325C159.555 61.7417 158.722 60.9083 158.122 59.825C157.522 58.7417 157.222 57.475 157.222 56.025C157.222 54.575 157.514 53.3083 158.097 52.225C158.697 51.1417 159.53 50.3083 160.597 49.725C161.664 49.1417 162.889 48.85 164.272 48.85C165.622 48.85 166.822 49.1333 167.872 49.7C168.922 50.2667 169.739 51.075 170.322 52.125C170.922 53.175 171.222 54.4 171.222 55.8ZM166.847 54.675C166.847 53.9417 166.597 53.3583 166.097 52.925C165.597 52.4917 164.972 52.275 164.222 52.275C163.505 52.275 162.897 52.4833 162.397 52.9C161.914 53.3167 161.614 53.9083 161.497 54.675H166.847ZM172.627 56C172.627 54.5667 172.894 53.3083 173.427 52.225C173.977 51.1417 174.719 50.3083 175.652 49.725C176.586 49.1417 177.627 48.85 178.777 48.85C179.694 48.85 180.527 49.0417 181.277 49.425C182.044 49.8083 182.644 50.325 183.077 50.975V44.5H187.352V63H183.077V61C182.677 61.6667 182.102 62.2 181.352 62.6C180.619 63 179.761 63.2 178.777 63.2C177.627 63.2 176.586 62.9083 175.652 62.325C174.719 61.725 173.977 60.8833 173.427 59.8C172.894 58.7 172.627 57.4333 172.627 56ZM183.077 56.025C183.077 54.9583 182.777 54.1167 182.177 53.5C181.594 52.8833 180.877 52.575 180.027 52.575C179.177 52.575 178.452 52.8833 177.852 53.5C177.269 54.1 176.977 54.9333 176.977 56C176.977 57.0667 177.269 57.9167 177.852 58.55C178.452 59.1667 179.177 59.475 180.027 59.475C180.877 59.475 181.594 59.1667 182.177 58.55C182.777 57.9333 183.077 57.0917 183.077 56.025Z" fill="black"/>
<line x1="115" y1="15.5" x2="549" y2="15.5" stroke="#CCCCCC"/>
<line x1="574" y1="15.5" x2="1040" y2="15.5" stroke="#CCCCCC"/>
<circle cx="97" cy="16" r="15.5" stroke="#D9D9D9"/>
<circle cx="97" cy="16" r="12" fill="#7BBB6B"/>
<circle cx="1050.5" cy="15.5" r="9" stroke="#D9D9D9"/>
<circle cx="1050.5" cy="15.5" r="6.5" fill="black"/>
<circle cx="561.5" cy="15.5" r="9" stroke="#D9D9D9"/>
<circle cx="561.5" cy="15.5" r="6.5" fill="black"/>
</svg>
