<svg width="113" height="113" viewBox="0 0 113 113" fill="none" xmlns="http://www.w3.org/2000/svg">
<path d="M108.534 59.1643C107.26 59.1643 106.019 58.5093 105.324 57.3323C95.1617 40.0864 76.4287 29.3747 56.4367 29.3747C36.4459 29.3747 17.7117 40.0876 7.54824 57.3323C6.50511 59.1022 4.22658 59.6926 2.45288 58.6483C0.682895 57.6051 0.0937278 55.3241 1.13686 53.5529C12.6324 34.0484 33.8226 21.9326 56.4367 21.9326C79.052 21.9326 100.241 34.0484 111.737 53.5529C112.78 55.3241 112.189 57.6051 110.419 58.6483C109.826 58.9968 109.176 59.1643 108.534 59.1643Z" fill="white"/>
<path d="M90.5712 69.7286C89.2974 69.7298 88.0558 69.0749 87.3612 67.8966C80.9337 56.9877 69.0834 50.2116 56.4368 50.2116C43.7901 50.2116 31.941 56.9877 25.5123 67.8978C24.4692 69.669 22.1882 70.2557 20.4182 69.2151C18.647 68.1707 18.0578 65.8897 19.1009 64.1197C26.8618 50.9497 41.168 42.7695 56.4368 42.7695C71.7055 42.7695 86.0117 50.9497 93.7738 64.1185C94.8169 65.8897 94.2265 68.1707 92.4566 69.2138C91.8637 69.5624 91.2137 69.7286 90.5712 69.7286Z" fill="white"/>
<path d="M72.6071 80.2922C71.3332 80.2934 70.0917 79.6385 69.3971 78.4602C66.7018 73.887 61.7354 71.0466 56.4366 71.0466C51.1366 71.0466 46.1702 73.887 43.4749 78.4602C42.4331 80.2314 40.152 80.8181 38.3808 79.7774C36.6096 78.7331 36.0204 76.4521 37.0636 74.6821C41.0898 67.849 48.5133 63.6045 56.4366 63.6045C64.36 63.6045 71.7823 67.849 75.8097 74.6821C76.8528 76.4533 76.2624 78.7343 74.4924 79.7774C73.8995 80.126 73.2496 80.2922 72.6071 80.2922Z" fill="white"/>
<path d="M56.4366 90.9431C59.1219 90.9431 61.2988 88.7662 61.2988 86.0809C61.2988 83.3956 59.1219 81.2188 56.4366 81.2188C53.7513 81.2188 51.5745 83.3956 51.5745 86.0809C51.5745 88.7662 53.7513 90.9431 56.4366 90.9431Z" fill="white"/>
</svg>
